<mxfile host="app.diagrams.net" modified="2021-11-11T13:03:02.251Z" agent="5.0 (Windows NT 10.0; Win64; x64) AppleWebKit/537.36 (KHTML, like Gecko) Chrome/95.0.4638.69 Safari/537.36" etag="rHCRgBeEUe_m0gHmEYhn" version="15.7.1" type="github">
  <diagram name="Page-1" id="edf60f1a-56cd-e834-aa8a-f176f3a09ee4">
    <mxGraphModel dx="1240" dy="1507" grid="1" gridSize="10" guides="1" tooltips="1" connect="1" arrows="1" fold="1" page="1" pageScale="1" pageWidth="1100" pageHeight="850" math="1" shadow="0">
      <root>
        <mxCell id="0" />
        <mxCell id="1" parent="0" />
        <mxCell id="bA95F1Ph_PGz0Y281SqP-14" value="" style="group;sketch=1;shadow=0;rounded=0;glass=0;strokeWidth=1;" parent="1" vertex="1" connectable="0">
          <mxGeometry x="230" y="-550" width="210" height="80" as="geometry" />
        </mxCell>
        <mxCell id="bA95F1Ph_PGz0Y281SqP-4" value="&lt;div&gt;&lt;b&gt;&lt;font style=&quot;font-size: 14px&quot; color=&quot;#33001a&quot;&gt;&amp;nbsp; &amp;nbsp; &amp;nbsp; &amp;nbsp; &amp;nbsp; &amp;nbsp; &amp;nbsp; COVID-19 Defense&amp;nbsp; &amp;nbsp; &amp;nbsp; &amp;nbsp; &amp;nbsp; &amp;nbsp; &amp;nbsp; &amp;nbsp; &amp;nbsp; &amp;nbsp; &amp;nbsp; &amp;nbsp; &amp;nbsp; &amp;nbsp; &amp;nbsp;System&lt;/font&gt;&lt;/b&gt;&lt;/div&gt;" style="strokeWidth=2;html=1;shape=mxgraph.flowchart.terminator;whiteSpace=wrap;rounded=1;shadow=1;glass=0;fontFamily=Helvetica;fontSize=12;fillColor=#FFE6CC;gradientDirection=south;align=left;fillStyle=solid;strokeColor=#330033;perimeterSpacing=0;sketch=0;" parent="bA95F1Ph_PGz0Y281SqP-14" vertex="1">
          <mxGeometry width="210" height="80" as="geometry" />
        </mxCell>
        <mxCell id="jhDbc5O9KZjzmxZdwlpp-39" value="" style="shape=image;html=1;verticalAlign=top;verticalLabelPosition=bottom;labelBackgroundColor=#ffffff;imageAspect=0;aspect=fixed;image=https://cdn4.iconfinder.com/data/icons/coronavirus-information/128/Artboard_12-128.png;rounded=1;shadow=1;glass=0;sketch=1;fontFamily=Helvetica;fontSize=12;fontColor=#000033;strokeColor=default;strokeWidth=2;fillColor=#FF3333;gradientDirection=south;" parent="bA95F1Ph_PGz0Y281SqP-14" vertex="1">
          <mxGeometry x="15" y="30" width="35" height="35" as="geometry" />
        </mxCell>
        <mxCell id="jhDbc5O9KZjzmxZdwlpp-41" value="" style="shape=image;html=1;verticalAlign=top;verticalLabelPosition=bottom;labelBackgroundColor=#ffffff;imageAspect=0;aspect=fixed;image=https://cdn0.iconfinder.com/data/icons/small-n-flat/24/678080-shield-error-128.png;rounded=1;shadow=1;glass=0;sketch=1;fontFamily=Helvetica;fontSize=12;fontColor=#000033;strokeColor=default;strokeWidth=2;fillColor=#FF3333;gradientDirection=south;" parent="bA95F1Ph_PGz0Y281SqP-14" vertex="1">
          <mxGeometry x="15" y="22.5" width="17.5" height="17.5" as="geometry" />
        </mxCell>
        <mxCell id="bA95F1Ph_PGz0Y281SqP-25" value="" style="group;sketch=0;rounded=1;shadow=1;" parent="1" vertex="1" connectable="0">
          <mxGeometry x="110" y="-370" width="170" height="280" as="geometry" />
        </mxCell>
        <mxCell id="bA95F1Ph_PGz0Y281SqP-6" value="&lt;div&gt;&lt;b&gt;&lt;font style=&quot;font-size: 14px&quot;&gt;&amp;nbsp; &amp;nbsp; &amp;nbsp; &amp;nbsp; &amp;nbsp; &amp;nbsp; &amp;nbsp; &amp;nbsp; &amp;nbsp; &amp;nbsp; &amp;nbsp; &amp;nbsp; Fever&amp;nbsp; &amp;nbsp; &amp;nbsp; &amp;nbsp; &amp;nbsp; &amp;nbsp; &amp;nbsp; &amp;nbsp; &amp;nbsp; &amp;nbsp; &amp;nbsp; &amp;nbsp; &amp;nbsp; &amp;nbsp; &amp;nbsp; Detection&amp;nbsp;&lt;/font&gt;&lt;/b&gt;&lt;/div&gt;" style="rounded=1;whiteSpace=wrap;html=1;absoluteArcSize=1;arcSize=14;strokeWidth=2;shadow=1;glass=0;sketch=0;fontFamily=Helvetica;fontSize=12;fillColor=#CCFFE6;gradientDirection=south;align=left;strokeColor=#001933;fillStyle=solid;" parent="bA95F1Ph_PGz0Y281SqP-25" vertex="1">
          <mxGeometry width="170" height="75" as="geometry" />
        </mxCell>
        <mxCell id="bA95F1Ph_PGz0Y281SqP-3" value="" style="shape=image;imageAspect=0;aspect=fixed;verticalLabelPosition=bottom;verticalAlign=top;rounded=1;shadow=1;glass=0;fontFamily=Helvetica;fontSize=12;fontColor=#000066;strokeColor=default;fillColor=#09555B;gradientColor=none;gradientDirection=south;image=data:image/png;base64,iVBORw0KGgoAAAANSUhEUgAAAgAAAAIACAYAAAD0eNT6AAAABHNCSVQICAgIfAhkiAAAAAlwSFlzAAAL0AAAC9ABdzF0jwAAABl0RVh0U29mdHdhcmUAd3d3Lmlua3NjYXBlLm9yZ5vuPBoAACAASURBVHic7N13dFVV+sbxb24SSCEJJRB6VdBNERtYsPcZx4I6oCAoooDdcey9MIoFBSuKoyBF1FGwC/axgYqosMVCkV4CgUB6+/2R4I9R0JCzzz23PJ+1WLpmje9+MXj3c/fZZ++EqqoqJPIZY5IBA/Tc7teeQDlQAKwAJgAvWGuLgupTRESiQ4ICQGQyxiQA+wB/Bf4C7A3Uq8U/uhm42Fo7ycf2REQkyikARBBjTApwPHAi1ZN+Cw/l/gXcaK3VD1hERH4nKegGBIwxBrgAOBto7Kjs9cA6YIyjeiIiEkO0AhCQmm/7pwPDgD4+DbMZ6GKtXetTfRERiVJaAQgzY0x9qif964Ecn4fLAu4GzvV5HBERiTJaAQgTY0wSMBi4GWgbxqGrgP2stXPDOKaIiES4UNANxANjzN8BC4wnvJM/QALwQJjHFBGRCKcVAB8ZY9oA44ATgu4FOM1a+1LQTYiISGRQAPBBzTv8w4FRQEbA7WyzCDDW2tKgGxERkeDpEYBjxpjdgQ+AR4mcyR+gEzDJGFObw4RERCTGaQXAIWNMX6qP420QdC9/4G2gr7W2MOhGREQkOAoADhhjQsBtwA1Ub7qLdJ8Cf7XWbgq6ERERCYYCgEfGmCxgEtXH90aTb4Gh1tovgm5ERETCTwHAA2PMbsDrQOege/HgDeA2a+2coBsREZHwUQCoI2PMHsB7eLuwJ5K8BYwGvrbW5gbdjIiI+EsBoA6MMd2Bd4BmQffik1zge2Ah8BNQFmw7EuFKgYKaX1t38tcCa215YB2KyO8oAOwiY8w+wEygSdC9iESZEqrDwBZgObC45teS7f5+ta6wFgkPBYBdYIzZD5gFNAznuImhBA7smcXJR2Tz2oe5fPilNu9LzCqmOhBsHwoWA99aa5cE2ZhIrFEAqCVjTFtgDv7f4PerPTqkc9Lh2Zx4aDbZjZIB2Ly1nNOu+I5V60vC1YZIpFgLfA58VvPXL3SehUjdKQDUgjGmAfAJ0MPvsZKTEvj7cTmccWwzOrdL2+H/57uftjLwugWUletnJ3GtnOrXWbeFgs+stYuCbUkkeigA/ImaQ35mEIb3/I/q3ZirzmlL2xYpf/r/nfbWWm57XCuiIr+xnupAMAuYYa1dFnA/IhFLAeBPGGPuB/7h5xh7dEjn2vPa0atb5i79c0+8uJIHJy33qSuRmPA1MJ3qMPBN0M2IRBIFgD9gjOkPTPWrfnajZC4b0IZTj2pGqI4HCI+ZvJxxL6x025hIbFpK9WredOC/1tqKYNsRCZYCwE4YY1oC84FGftTv1S2T0VfvTuPMZM+1Rk9cxviXVjnoSiRubKD6FM/pwNvaTCjxSAFgJ4wxbwAn+FF74InNuebcdiQmurs36OV313Pb40soLat0VlMkThRSvdL3mLX2q6CbEQkXBYAdMMZcAIxzXbd+vRC3DO/AKUc2dV0agHk/bOHSu38kN08H94nU0RfAY8Bz1tqioJsR8ZMCwG8YYzpQ/WpRA5d1c5rU46FrO9Ntd6dlf2fdxlJuH7eE92bn+TqOSIzbBEwAHrfWLgy6GRE/KAD8hjHmLeA4lzXbtUxh0r+60qSh9+f9tfXO5xsZ+eRS1m4oDduYIjHqfapXBaZba7W8JjFDAWA7xphjqD7n35kmDZOZMqobbXLquyxbKwVFFYx7YSXPvbWWrYXa8Czi0RpgPPCQtXZd0M2IeKUAUKPmwJ+5wF6uaqamhJg4sitdO6W7KlknWwormPrGGp59bQ0bNukLjIhHBcDDwL3W2g1BNyNSVwoANYwx5wBPu6qXmJjAozd04ZB9wnpv0B8qKa3kndkbefuTjXw8dxPFpXpjQMSDrcBY4D5rrTbdSNRRAACMManAj0BrVzVHXtKJU4/yZ7e/C0XFlXz4VR6ffL0Zu7iAn5cV6m4BkbrJBx4EHrDW6qpOiRoKAIAx5h/A/a7qDTujFZcNaOOqXFiUlVfx0y+FLF5RxOat5eQXVJC/tZwthRVUVurPiOxceXkVBcUVFBZXUFRcSWFxBYVFNX8troynsyk2AaOBMdba/KCbEfkzcR8Aap79/wR0dFGvY+tUpo/pQZLDQ35EollFRdWvYWBLQQUr15WwYm0xy9YUs2JNCcvWFLNybUksPZLaSPUXirHW2q1BNyOyMwoAxpwIvOqq3sSRhv267tqlPiLxrqoK1ueVsmJtCcvXFLN8TQnLVhfz3c9b+WVVcdDt1dU64J/W2meDbkRkRxQAHL73f+qRTRl5aScXpUSkxsb8MuZ9v5WvF27h64VbWLCogJLoWi14Hxhhrf0h6EZEthfXAcAYszvwA+B5vT6rQRJvPNqTRplJ3hsTkZ0qK6/i+8UFvwaCeQu3sm5jxB94VQqMAv5lrY3aJQ2JLfEeAB4ALndR646LO3La0c1clBKRXbR8TTHvzs5j1mcbmffDFiL4Y+1n4EJr7aygGxGJ2wBgjEkAlgOtvNbaZ88Mnv1XVxK0708kcOs2lvLO53nM+mwDXy7YQkVkvsUyFfiHtXZN0I1I/IrnALAf1Td/eRJKgJfH9GD3tmkOuhIRl/Lyy3lvzkZmfrqRz7/dHGlnXWwGrgPGWWujalODxIZ4DgC3Azd5rXNwzyyevHVPBx2JiJ+2FFbwwRd5zHh/PZ99szmSHhPMBgZZa38MuhGJL/EcAL4Benitc88Vu3HiYdkOOhKRcFmysoipb65lxnvr2RIZF2VtBS6y1k4MuhGJH3EZAIwx7YElXuukpSTy8YR9Sakf8t6UiIRdUXElr3ywnilvrOWnZYVBtwMwkeogoAOExHfxOnMd76LIsQc11uQvEsVSU0L0Oz6HGWN7MGGk4biDm5AY7Cmeg4CvjDE9g2xC4kO8zl69XRQ5+fDIvexHRHbN/l0zeeCq3Xn3yb25sF9rGmcmB9VKZ+BzY8zFQTUg8SFeHwHMB7p6qdE8ux7vPLkPIb36JxKTCosrmPjKGp6evirIfQIzgCHW2o1BNSCxK+5WAIwxDQDP2/ZPOrypJn+RGJaWksjwv7di5hN7M+TUlqTUC+Tj8mRgnjHm4CAGl9gWdwEA2AcHv++/HNLEQSsiEumyGiTxz8FteevxnvQ7PieImz7bAB8aY64N98AS2+IxAOzvtUByUgKd2qS66EVEokSzxvW4ZXgHXn9kL048LDvcK4CJwF3GmH8bYwLbnCCxJR4DgOfl/zbNU0jU+r9IXGrTPIV7rtiNlx7swRH7Nwr38OcCbxhjdOe4eBaPAaC11wLtW6W46ENEoljndmk8ckMXHrtxD1o0rR/OoY8GPjHGtAnnoBJ74jEAeL78p0NLLf+LSLXD9mvIqw/1YOCJzcP5WKAb1a8K7h22ESXmKADUgVYARGR7aSmJXD+0PVNGdaNzu7BdDNYS+MgY85dwDSixJa4CgDEmFfD80K5DK60AiMjv9ejcgBdHd+fygW2oH57XBhsArxhjhodjMIktcRUAcPDtH6B9S60AiMiOJSUmcMHprXj5wR7s3zUse/USgceMMaOMMdqdLLUWbwGggdcCGelJNM7SWzgi8sfat0zhmTsNt1/UkQZpieEY8mpgsjEmLINJ9Iu3AOD595tSTwFbRGonIQFOP6YZL97fnS7tw7I34EzgWWNMvH22Sx3E2x8Sz7N3cUmliz5EJI60bZHC1Hu60ffoZuEY7kzg33ocIH9GAWAXFSkAiEgdpNQLcefFHRl5Sadw3CswGBinECB/JN4CgOffb3lFFRUV8XeDooi4cepRTZl6Tzfa+b+Z+HzgYb8HkegVbwHASRou1CqAiHjQpX0aL9zXnWMPbOz3UBcaY0b7PYhEp3gLAPkuimgfgIh41SAtkQev6cw1Q9r5fcPgFcaYu/0cQKJTvAWAtS6KFJdUuCgjIsLgk1rwzJ2GhhlJfg5zjTHmdj8HkOgTbwEgDyjzWqSwWCsAIuLOPntmMOmurn5fKnSTMeYGPweQ6BJXAcBaWwWs91onv6DcQTciIv+vY+tUpo7q6vddAncaY4b6OYBEj7gKADU8PwaY/1OBiz5ERP5Hs8b1ePZfhn1Nhp/DPGqMOcTPASQ6KADUwdzvt7joQ0TkdzLSkxh/654cfYBvbwgkA/8xxrT3awCJDvEYAOZ7LfD1QgUAEfFP/XohHrh6d/5+XI5fQzSl+hZBz/ejSPSKxwDwudcCGzeX8cuqYhe9iIjsUGIogVtHdOCi/q39GqI71fcG6LTAOKUAUEdaBRCRcLiof2tuGd6BBH+m6VOAO32pLBEv7gKAtXYlsMJrHQUAEQmXfsfncN157f0qf70x5ky/ikvkirsAUMPzKsD7X+RRrjsBRCRMBp7YnIvP9O1xwFPGmP38Ki6RSQGgjnLzynjn840uehERqZUL+7Vm0N9a+FE6FZhhjPGluEQmBQAPpr7h5GRhEZFau2ZIO049sqkfpVsCLxljfD2TWCJHvAaAuTg4EviLBfksWl7koB0RkdpJSIDbL+7o1zkBBwA3+lFYIk9cBgBrbRHwnotaU99c46KMiEitJYYSuO/K3Thwryw/yt9gjOntR2GJLHEZAGo846LIKx/kUlis2wFFJLzqJYd46LrO9Ojs/CyfJKrPB0h3XVgiSzwHgOnAZq9FthZW8OyrWgUQkfBLS0lk3M170KlNquvSuwP3uy4qkSVuA4C1thh4zkWtcS+sZPnaEhelRER2SVaDJB6+rgsZaYmuSw8zxvzVdVGJHHEbAGpMcFGkuLSSO8ctcVFKRGSXtWuZwt2X7+bHaYFPGWOynVeViBDXAcBa+xnwg4ta/527iZmf6lwAEQnGEb0accHprVyXzQGedF1UIkNcB4AaTlYBAP41fikFRdoQKCLBuOSsNvTZu6HrsqcYY4a4LirBUwCAZ4FyF4XWbSzlwUnLXZQSEdlloQS498rdaNWsvuvSDxpjOrguKsGK+wBgrV0BPOGq3uTX1zDj/fWuyomI7JKsBkmMvbYz9es5/XjPAJ5yWVCCF/cBoMZtgLPr/W5+ZDFz5ue7Kiciskv27JjOLcOdf2E/whhzuuuiEhwFAMBauw4Y5apeWXkVl979I4tX6JhgEQnGKUc2pf/xOa7L3muMSXFdVIKhAPD/HgBWuiqWv7Wc4XcsZGO+5ysHRETq5Lqh7enSPs1lyfbAlS4LSnAUAGpYawuBm13WXLG2hItG/kBRcaXLsiIitZKclMC/Lu1EYqLTAwKuM8Y4f99Qwk8B4H89A3znsuA3P2xl4PULWLex1GVZEZFa2bNjOkP7tnRZMh2422VBCYYCwHastZXAVa7rfr+4gH5XzWfhkgLXpUVE/tSF/Vq7vi9ggDHmAJcFJfwUAH7DWvs2MN513bUbShlw3QLe/yLPdWkRkT/066OAkLNHAQnAGGOM+8OHJWwUAHbsUmC+66JFxZVc8q8fmPjqatelRUT+UPfdGzD45BYuS/YCznZZUMIroaqqKugeIpIxxgBfAE630G5z7IGNuW5oe3Ka1POjvIjI75SUVnLq5d+ydFWxq5Krgc7W2q2uCkr4aAVgJ6y1FrjYr/ozP9vIiRd/w6TX1lCpDCYiYVC/Xog7L+mEuycBtACuc1ZNwkorAH/CGPMsMNDPMbrtls6tIzpiOqX7OYyICAB3PbWUZ19d46pcAdDWWqvrUKOMVgD+3AjgRz8HmP9z9VsCdz21lI2bdXCQiPjrioFtaZ7t7PFjOtX7piTKaAWgFowx3YEPgUZ+j1UvOcQJfZow8MTmdNWKgIj45OV313PDQ4tcldtI9SqA3nWOIgoAtWSM2R+YBWSFa8y998hgwF+bc+xBjUlye5KXiMS5yio45bJv+HmZsztLrrTWjnZVTPynALALag6+mEn11Zhh06xxPU46PJsDemSxj8kgxe01nyISp97/Io+LRv7gqtxKoKO1VseeRgkFgF1kjOkDvEX1c6+wS05KoGeXDHr3yOSAHln06NxAqwMiUmcDr1vA3O+d3YZ+vrXW+UFq4g8FgDowxhwOvAE4PVuzLlJTQpiO6bTOSaFxVhKNMpNplJlEo4xkGmYm0SgziYy0pKDbFJFdUL9+iIy0xLCMNe+HLZx1zQJX5X4C9qg5Vl0inAJAHRljjgZeBXQ3tog417Jpfbrulk6Pzg0484Qc0lL8CwSX3PUj78529hZfP2vt866KiX8UADwwxhwKPA/kBN2LiMSu1jn1uePiTvTunulL/cUrijj50m+pcHMq2Txr7d4uCom/tJvMA2vtR8A+wKdB9yIisWvF2hKG3GwZ/9IqX+p3bJ3KqUc1dVWupzHmBFfFxD8KAB5Za1cBhwNjA25FRGJYVRWMmbyc+T/786r9Rf1bu3zD6FpXhcQ/CgAOWGvLrLWXAWdRfSymiIhzFRVV3DB2EWXl7h/d5jSpx2nHNHNV7lBjzJ6uiok/FAAcstZOBXrj89HBIhK/flpWyPtz8nypPfCvzUlw91bxIGeVxBcKAI5ZaxcA+wFjgPKA2xGRGPTtT/7cvtuuZQqH7NPQVbmBxhjNMRFMPxwfWGu3WGsvB3pQfXKgiIgzC372JwAAnP23Fq5KtQaOcFVM3FMA8JG19ntr7XHAyYCzWzdEJL799Iuz8/t/56C9sujY2tkZZ4NdFRL3FADCwFr7CmCo3hnrX3QXkbhQVu7fQXsJCTDwxOauyvU1xjRwVUzcUgAIE2ttqbV2FNAZGA34s4tHRMSjkw9vSka6kyPE04G+LgqJewoAYWatXW2tvRJoBZwLzAm4JRGR/5GaEuL0Y5wdDKTHABFKRwFHAGPMvsAI4EwgLeB2RCTCZaQlMnvK/r6OsXJdCccPn+fieOBKoL21drmDtsQhrQBEAGvtV9baoVSvCowKuh8RkVbN6nNEr0YuSoWAs10UErcUACKItXYTsDroPkREAPod7+yeMx0KFIEUACLPUUE3ICICcED3TBpmONkM2MUYoxsCI4yTn6y4YYxJovpiIU+a5+TQtl0b8vI2sXHjRrZs8ffNw9LSUs816iUn4/UM0rKyMrzuaUlKSiIU8paLy8vLqaz09ppWYmIiiYne7n930UcoFCIpydvHREVFBRUVFYH3UVVVRVlZmacaCQkJJHvsA6DUYx/hkpiYwNEHNObFWetclDse+NpFIXFDASCy7A9keC3y9zP6MmBAfwft1M5Rx/yFrVu93YH0/LRJtGjh7d3jgYPO46effvZU47577+LAA3p5qnHjTbcx6533PNX455WX0ffUkz3VeOTRcUx8doqnGgMH9OeiC4d5qvHSyzMYdc9oTzWOOvJw7rzjFk815s6dx4iLLvNUY7fdOjFp4lOeauTl5XH8X07xVKOkLHybt487uImrAHAccJeLQuKGHgFElqNdFOnd29/dwSJSd5mZmZ5rlJZVUlLq32FA23P4GOAgY4znLzjijgJAZPH8/L9Jk8Z06tTRRS8i4oPExEQaNEj3XGdLgbfHKrW17TGAA8noboCIogAQIYwxacCBXuv06rUfCQ7v8xQR91ysAuQXhO+y0eMObuKslKtC4p0CQOQ4BKjntUjvXlr+F4l0WVneA0C4VgCg+jFAVgMnjwEUACKIAkDk8Pz8PyEhQQFAJApkZWZ5rrExP3xvEjh8DNDJGNPJRSHxTgEgcnh+/r/bbp1o3NjJyV0i4iMXKwA/LCl00EntHXewkwAAcKyrQuKNAkAEMMZkAz291tG3f5Ho4GIPwIJF3l693VUH9sjSY4AYo3MAIkNvwPPOPb3+JxIdXKzULVjk7wFfv5WYmEDv7pnM/Gyj11JHGmOSrbW/e4ZhjKkHNAWaANnb/bURsAlYCayq+bXWWhu+nZAxSAEgMnj+9l+/fn167tXdRS8i4rM99ujiucaa3FI25pfRODPZQUe1s4/JcBEAMqh+4+mjmv0AB273qwdQ2yMwK40x6/j/QPA98CrwibU2PIckRDkFgMjgOQB0796VevU8v0QgImHQreueJCQkeD662v5cQJ99Gjrq6s/ta7w/uqgx3hjTkOpv+3UVAprX/NoHOBG4Csg1xrwGzABmWmvDu1kiimgPQGTwHAD2dPCNQkTCIzMzkzZtWnuu8+FXmxx0U3t7dEgjLcXbHRU1dsfb5P9HsoFzgJepDgOvGGPOM8Y428UYKxQAAlZzNKbn12K6dOnsoBsRCZfu3bp6rvH2pxuoDN+1ACSGEtirS4PwDehdKvA3YDywxBhzvTEmNeCeIoYCQPB64GADoFYARKJLt27Gc43cvDK+mJ/voJva22fPqD3OPxMYCfxsjBlqjHGylBHNFACC53n5v0GDdFq1aumiFxEJk24OVgAA3vx4g5M6tbVv9N/n0xJ4EvjWGHNS0M0ESQEgeJ4DQJcunXX+v0iU2a1TR1JTUzzXmfXZBioqwvccYK/OGSQmxsTnjQFmGGM+MsbsF3QzQVAACN7eXgu4eKVIRMIrFAphzJ6e6+Tll/NGGFcBUlNC7NnR+22GEeQQ4FNjzNCgGwk3BYAAGWOSAM/rgHtqA6BIVDry8MOc1Bn3wko8vlG4S/aN3n0AO5MMPGmMeTCe9gYoAARrD8DzGqBWAESi07HHHkW9ZO8H+SxeUcQ7n3s+oKfW9o69ALDNZcAbNWcUxDwFgGB5ProvPT2d1q1buehFRMIsMzOTPocc7KTWuBdXOqnzZzZtKeeZ6avDMlZAjgVmG2NifmlVASBY7bwW6NJld20AFIliJ/7leCd17KICPvL5YKCV60oYcO0C5v2wxddxIkBnqkPAMUE34icFgGC19VqgfTvPGUJEAnTggb1p0sTNIXUjn1xKcak/x+Dn5pVxzo2WJSuLfKkfgRoCrxtj3GzUiEAKAMFq47VA8+bNXPQhIgEJhUIcf/yxTmotX1PMw1NXOKm1vYKiCobdsZCV60qc145wycCLxpgOQTfiBwWAYHleAcjJyXHRh4gEyNVjAIAJM1ZjFxU4q1deUcVlo37k+8XuakaZbOCVmmPbY4oCQLA8B4AWzZu76ENEAtSxYwe6dvV+NDBARWUVNz682NnhQHeOW8Kn8zY7qRXFugGTjTExNWfG1G8mmhhjGlD9jMmTHD0CEIkJwy84z1mthUsKGP3sMs913vl8I8/PXOego12TmZxM18yGHNikKcfltKJvq3Yck9OSvRs2oXVqOimJgbyq/zfgX0EM7JekoBuIY56//YdCIZo19etGTREJp1699qNXr/2YM+dLJ/Wenr6ajq1TOe3oun1JWJ9Xxs2PLHbSy59JT0rikOwc9m7YhO5ZjWiX1uBPb0jbWl7GvE0b+Th3LR9vWMfG0rDsT7jGGDPfWjspHIP5TQEgOJ4DQLOmTQmFtIgjEisuuXgEgwYPpcrRsX63PbaE1jkp9O6euUv/XFUVXD/mZzZtKXfSx46EEhLYv1E2JzRvzWFNc6gf2rVv9Q2SkumTnUOf7ByqAJu/iQ/Wr+allcsoqvCvb2C8MWaOtfZHPwcJB80ewfH8BoCW/0ViS+fdd+P449y9er5tA9/SVcW79M/N+nwjn/j43L9346Y8s18fHtirF8fmtNzlyf+3EoCumQ25qNOevHDA4fRt1Y5E/85HqQ/c5VfxcFIACI7nFYDmegNAJOYMHzbUyfHA2+RvLWfYbd+zYm3tlsirquCxae5fJQTokJ7B2J69eWCvXuzWYNdWJWqrcb36/LNzNyb3OozDmvq2SbqvMeYAv4qHiwJAcLwHAL0BIBJzmjfP4Ywz+jqtuXxtCQOvW8DPy/78EJ93Z2/kh6WFTscHOLJZC8bvezD7Ncp2XntH2qalc1e3fblhz71I9udR6T1+FA0nBYDgNPFaICdHjwBEYtG555xNRobb187XbSzl7OsX8O2PW3f6/6mqgkenub1TIJSQwIiOe3Bn131IDWD3/l+bt+bhngfQqF4916UPMcac5LpoOCkABCfNa4HMjAYu+hCRCJORkcE1V//Ded3NW8s592a70+f778/JY+ESdwf+NEhK5t7u+3N2u07OatZF96xG/HvfPuzu/rHDXdF8fbACQHA8B4CUFM83CYtIhDrm6CM55ZS/Oa9bVFzJ8NsX8tCU5b87LOjR5909+68fSmTMXr04sElkvKqck5LKo3sfSId0p1+cDHCuy4LhlODqdRPZNcaYb4AeXmo8/NBo9t9vX0cd1V1eXh6Vld7+HDVq1NDzK42bN+dTXu7t9Z/MzAySPW7A2rq1gJISb+8kN2iQTv369T3VKCoqorDQ28UtaWmppKameqpRUlLC1q3evlXWr1+fBg3SPdUoKysjP9/bLXZJSUlkZfmzeW1HSktLOWfIMBYt8ud9/L26NOCef+xOm5z6vP9FHheN/MFJ3QTg9q77cFSzFk7qubSqqJDzvvqEzWWlzkoC7ay1vr576AcFgIAYY34CdvNSY/yTj9K9W1dHHYlIJFr6yzLOOfd8iop27VW+2kpPTeTGC9oz+fU1zP/ZzfL/eR06c1773Z3U8sPcvA1c9s1sKtzNf0dba991VSxc9AggON6+VgEpHr8hikjka9+uLVf98wrf6hcUVXDdmEXOJv9DsnMievIH2KdRE67Y3emXp1NcFgsXBYDgeN4D4HVpVkSiw1//cjx/OeG4oNv4U/VCIS53O7H6pm+rdvTIauSq3MmuCoWTAkBwHGwC1AqASLy4+qp/0KlTx6Db+ENnte1Ii5To+WJyUac9XZVqY4wJfkPWLlIACEDNlZKeZ+/6egtAJG6kpqbwyEOj6dChfcCd7FjT+imc3dbTtqaw657VyOVpgVH3GEABIBhOInKqAoBIXGnUqBGPPvwg7dt5PkjUucHtdgvkoB+vRnTcw9W9AQoAUiuel/8TExNJStJljiLxpnHjRjzy8IO0adM66FZ+lRwKcXSzlkG3USdt09JdrQJ0M8YEe+LRLtIM4oAxJgHIBloCrWr+/o/CVWOvY3p9R1xEold2dhMee2QMw0dcwoqVq4JuhwMaNyXT4QVGEuuEDgAAIABJREFU4XZYdnPeW7faRam/AA+5KBQOCgC7wBjTBvgbsCfVk/22Xy2AsP7pT/TncgsRiRJNm2bz6CNjGH7hpaxa5WTyqrPjcloFOr5XBzVpRnIoRFllpddSWgGIJcaYnlS/4nEysHfA7fyqCh3gJBLvcnKa8dgjY7jiymtYvHhJID3UC4Xokx3dV5OnJyWxT8MmzN643mupqHoOogDwG8aYJOAwqif8k4B2wXYkIrJzzZvn8O/xjzPqnvt5862ZYR+/fVoD6sXAiuSh2TkKAPGq5jn+mcCdQIeA2xERqbXU1BRuveUG9tqrO6NHj6W0rCxsY3ds4Pba4qCYzIYuykRVAIj+2OaAMeZo4EtgMpr8RSRKnXrKSTz5xCO0bBm+S3g6psdGAMiu7+S1agWAaGGM6WmMeRuYBewTdD8iIl7tsUcXJj7zJIf0OchJvczkZDqkZ7Bfo2yOy2nF0c1asm+jJnRKz6Bxvfp0ipEA0Ci5novzAOobYzy/5RUucfkIwBjTFhgJDKD65koRkZiRkZHBvff8iylTn+fJ8f/2dJNgflkZ+WVlLCmovkq5af0UdmuQwYFNmtGpQXUwiAWhhASa1KvPuhLPty62BDY6aMl3cbcCYIw5DvgWGIgmfxGJUQkJCQw4qx8vPj+FE088gZCjjXrrS4r5bMN6Ji1bxG12HoUV5U7qRoJ4ewwQVwHAGHM58DqQFXQvIiLhkJ3dhJtuuJZnnn6Cffd1/yazo2N0I0JGkpPjXJxdMei3uAgAxph6xpjxwANA9B1WLb9z8y138MKLL4V1t7PI9kpKSnhu2gvcfsddQbdSK106786jDz/IvaNGRtQxwjEoahJRzAcAY0xT4F3gvKB7ETfmzp3H2zPf4b77x9D3tP4KAhJW2yb+U0/rzwMPPszrb7zF/Pk26LZq7dBD+/DclAn84/JLgm5FAhbTAcAY0wP4AugTdC/izpPjn/7179evz1UQkLD47cS/YcP/7/Pa/s9kNEhKSqJfv9ODbkMCFrMBwBjTDfgYneQXU+bOncfcr+f97n9XEBC//NHEv83ns+fw3fwFAXQnUncxGQCMMdnAK0BsvKAqv/qzb1oKAuJKbSb+7UXbKoBIzAUAY0wy8B90ol/M2dm3/x1REJC62tWJf5vZs7/QKoBElZgLAMAjwKFBNyHu1eUb1rYgcGrf/jz/goKA7FxdJ/7taRVAoklMnQRojLkEOD+IsZOTk2nSpDFNs7Np2KghCX/wbmxxcTFz5nwZxu6i3658+9+R3Nxc7h89hgkTJzN40ABOOeVv1Et28s6vRLmSkhJenv4KE5+dUqdJf3uzZ3/Bt9/Np0f3bo66E/FPzAQAY8wxVL/n77vExER69uzBYYcewt5770XTptk0zMr6w0l/e6tXr+GUvv187jK2uPpm9bsgcPKJ1KtXz0ltiS4uJ/7tPTn+aR4ac7+zeiJ+iYkAYIxpCTyPj4f8JCQk0OfgAznyyMPpc/CBZGZm+jWU/IbXb/87oiAQv/ya+LeZM+dLrQJIVIiJAADcBji5zHlHevXaj4svHEaXLp39GkL+gJ/PVRUE4offE//2tAog0SDqA4AxxgDn+lG7S5fOXHzhMHr12s+P8lILfnz73xEFgdgVzol/mzlzvuSbb79jrx7dwzKeSF3EwlsAd+F46T8hIYGh553DhKef0OQfsHDvqt4WBE497czqtwZKS8M6vrjjYle/F+P1RoBEuKheATDGHAKc5LJmSkoKN990HUcdebjLslIH4fr2vyPbrwgMOvssTj3lb1oRiBJBfOPfkTlffKVVAIlo0b4CcI/LYs2aNeWJcQ9r8o8QkfBOdW5uLqMfGMupp53JtOf/oxWBCBb0N/4d0SqARLKoXQEwxvQFDnBVr2nTbP49/nGaNs12VVI8KC0ro1mzpoRCISorK4Nu59cgMPHZKVoRiDCR8o3/txISEmiQkUFpWZnOnJCIFJUBwBiTQPWzfyfq1avHPaNGavKPIPWSk7nt1hsZMmQQ//73RGbOejfCgsBkBp09QEEgQJE88R9xxGEMHTKYTp06Bt2OyE5FZQAAegPO3sm74fqrMXvu4aqcONSubdsIDQIbFAQCEskT/5FHHMZ5551Dp466ikQiX7QGgFNcFRp09lkcf9wxrsqJTxQERBO/iFtxHQDat2/HiOGBXB0gdRQVQWDgWZx66kkKAo5o4hfxR9QFAGNMF6CLi1oXXziMUCjaX4SITxEdBB58iImTpigIeBTJE/9RRx7OeUMG01ETv0SxqAsAOPr2v3fPvTjkkINdlJIAKQjEnkid+EOhUPU3fk38EiPiNgBccvFwF2UkQigIRL9InviPOvJwhpw7SBO/xJSoCgDGmOZUvwHgyUEH9qZrV+OgI4k0CgLRJ9In/vOGDKZDh/bBNiPig6gKAMCJQILXIkcccZiDViSSKQhEvoie+I86gvPOHaSJX2JatAUAzy/rh0IhPfuPI9EQBAYPGsjpp50SNxtSKysrefE/03lmwrMROfEPHTKY9u3bBd2OiO+i7ROnpdcCPXp0o1HDhi56kSiyLQg8N3UCxx93TMRMtrm5G7h/9BguGHYxy5evCLod3y1fvoILhl3M/aPHRMzkHwqFOPaYo5g6+RnuvP1mTf4SNyLjU7D2PAeAww49xEUfEqUiNQh8N38BQ4aOYOXKVUG34puVK1cxZOgIvpu/IOhWgP+d+O/QxC9xKDI+/WrPcwDYq0c3F31IlIvEIJCfn89VV19PcXFx0K04V1xczFVXX09+fn7Qrfz/xD9lgiZ+iWvBf+rtGs8BIDtbF/7I/4u0ILBo8RJeefWNQHvwwyuvvsGixUsC7SEUCnHcsUf//8Tfrm2g/YgELWoCgDEmC0j3UiMhIYHGjRs56khiSSQFgWnTXoiIjYquVFZWMm3aC4GNv/3Ef/ttN2niF6kRNQEAB9/+MzMzSNa93PIHIiEIrFi5Kqb2AqxcuYoVAfx+QqEQxx93DM9N1cQvsiNxFQCymzRx0YfEgaCDQCy9ERDu38v2E/9tt95Iu7aa+EV2JJrOAcjwWiA1LdVFHxJH2rVty8UXDWfL1q188slnYRt3cwRslnMl3L+XAw/szcUXDadpU+33iRZ3fP8NG0tLPNW4qnM3WqamOeooPkRTAFjjtUBe3iYXfUicWL8+l2cmTuKVGa9RWlYW1rFbtfK84BUxwv17+eSTz+h7Wn9OOvlEzhk0UEEgCny9aQNrios81SioKHfUTfyIpgDg+SHixo2RcfCIRLYgJ36oXsKOpWXrdm3bEgqFwrqxsbSsjBdffJlXZrzGySf/jcGDBigIiPxGNO0BWA1UeSlQVFRMUZG3lCmxa/36XO69/0H6ntafF198OZDJH6BPn4PIysoMZGw/ZGVl0qfPQYGMXVpWxgsvvkTf0/pz7/0Psn59biB9iESiqAkA1toywPN/vZFy/KhEjkiZ+LcZcGa/QMf3Q9C/p20rAgoCIv8vagJADc+PAZbF0O5q8SbSJn6AQWefRc+ePYJuw7mePXtwzuCBQbehICCynWgLAKu9Fvjkk09d9CFRLBInfoATjj+WEcPPD7oN3wwfNpQTTzwh6DYABQERiL4A4HkF4MOPPqaqytNWAolSkTrxZ2ZmcvttN3HrLTcEfhSxnxISErjphmu59ZYbSE/3dKinMwoCEs+i6S0AgGVeC6xfn8vChT+y555dXPQjUSDoXf0706BBOv37nUH//meQ0aBB0O2EzQnHH8uBB/RmytRpPP/CSxGxMXf7twb0+qDEi2j7uvGuiyIf/fdjF2UkwkXqN/4GDdIZet45TH/5ec4fem5cTf7bNGyYxYUjLmD6S9MYPGgAqamRcUiXVgQknkRbAPgUB28CvPb6m5SWljpoRyKRJv7ooSAgEpyoCgDW2krgda911q1bz4v/me6gI4kkkTzxnzdksCb+P7AtCMx4+XkFAZEwiaoAUONVF0UmTJxEYWGhi1ISsGiY+C84f4gm/lrIyspUEBAJk2gMAG8D3m6NADZt2szkKdMctCNB0cQfuxQERPwXdQHAWrsV+MBFrSlTn2fN2rUuSkkYRerEn56uid+1/w0CAxUERByKugBQ4xUXRQoLC7n66hsoLi52UU58FukT/4yXp2ni90l1EDhfQUDEoWgNADMAJ3c//vDjT9xx590uSolPombiz8gIuqWYpyAg4k5UBgBr7UrgKVf13nn3fZ5+5llX5cQRTfyyMwoCIt5FZQCocTvg7AixcU88xetvvOWqnHhUWlbGgLPPjbiJf8i5gzTxR5DfBoG0tLSgWwL+PwgMOPvciPnzK/JbURsArLWrgDGu6lVVVXH7HXcx9qFHqaysdFVW6qhecjKnnPy3oNsA/nfiH3bBeZr4I9C2IFB9oFDkBIGTTzqResnJQbchskNRGwBqjALyXBacPGUal11xFVu2bHFZVupgwFn9A13a1cQffSIpCKSmpjDgrP6BjS/yZ6I6AFhrN1EdApyaM+dLzjn3AhYssK5Lyy7Iysrk72f0Dfu4aWlpnHvO2Ux/6TlN/FFq+yBwzuBggsAZp/elYcOssI8rUltRHQBqjMXBNcG/tWLlKoYMHcF1N9zCL8s8X0IodRTOVYBtE/+Ml6cxfNhQMjMzwzKu+CcrK5MRw8MfBPTtX6JB1AcAa20R1RsCffHeex9w5lnncNeo+8jN1Y7ecKteBTjN1zE08ce+bUFgxsvhCQKnn3aqvv1LxIv6AFDjCRzdEbAjFRUVTJ/+Kied8ndGXHQZU6Y+z/LlK/waTn5jwFn9fPnATktL45zBAzXxx5HMTP+DQGpqCgMG6Nu/RL6koBtwwVpbZYwZCHwO7OnXOBUVFcydO4+5c+cxZuwjtGvbln333ZucnGZkZzchO7sJTbOzycrKIiEhYad18jZt8qvFmJSVlckZp/dlwsRJTuqlpaXx9zP6MuCsfpr049S2IDDgrH5MnjKN5194ydnlYKefdiqNGjZ0UkvETzERAACstfnGmJOBOUBY/uv7ZdmywPYHlJdXBDJuUAac1Y8XXvT2Ia2JX37LdRDQt3+JJrHyCAAAa+1PwJlAzL/IX1paGnQLYeXljYC0tDQGDxrI9JemMWL4+Zr85Xe2fzRw7jln1/nRwGl99e1fokdMBQAAa+1bwLVB9+G3yspKyuLshLFd3QuQmpr668R/4YjzycrSxC9/LDMzk+HDhtYpCKSmpjBwoL79S/SIuQAAYK29F5gSdB9+i7dVgMzM2q0CbJv4Z7z8vCZ+qZO6BAF9+5doE5MBoMZQ4KOgm/BTSUl8BQD441WA6ol/gCZ+caa2QSAlJYWBA/qFuTsRb2I2ANScD3A08HjQvfgl3lYAoPoDud/f//dcgP+d+C/QxC/O/VkQOO20U2jUqFFA3YnUTcwGAABrbZm1dgQwHIi5B+bFJSVBtxCIs878O2lpab9O/NXP+DXxi/9+GwTS09NJSUnhbO38lygUM68B/hFr7ThjzALgRSAn6H5ciccVAKj+EL77X7fTpUtnnbYmgdgWBM468+8ssAv17V+iUkyvAGzPWvsxsB/wVdC9uFISpysAAL1776/JXwKXmZnJgQf0CroNkTqJmwAAYK1dAfQBJgbdiwulcbgJUERE3IirAABgrS221g4GDgM+DbofL7YWbA26BRERiVJxFwC2sdZ+ZK09GDgZWBB0P3Wxfp1uJxQRkbqJ2wCwjbX2FaAHMBj4JeB2dsm69QoAIiJSN3EfAACstZXW2olAZ+ByYGmwHdXOuvXrgm5BRESiVFy8Blhb1tpSYAwwxhjTHTip5tf+wM7v9w3Ieq0AiIhIHSkA7IS19jvgO2CkMaY58Deqw8BRQGqQvW2zbt36oFsQEZEopQBQC9baNcCTwJPGmDTAAC128qs5kM2fP15JAOp56Wv9egUAERGpGwWAXWStLQS+9FrHGNMU8PQQv6iomC1bt5LRoIHXdkREJM5oE2BArLXrgS1e66zXYwAREakDBYBgLfZaYJ0eA4iISB0oAARrkdcCa9boVUAREdl1CgDB8hwAFi/2vIggIiJxSAEgWJ4DwM+LFABERGTXKQAEy/PsvUgBQERE6kABIFieVwA2bdrMxo15LnoREZE4onMAgrUMKMfjz+HnRYvp1XhfNx1JzCkoKGDZshVs2ryZwsJCigqLKCwqoqioEIDU1DTSUlNJTUslLS2NhllZtG3bmvT09IA7FxE/KQAEyFpbboz5Bejkpc6iRYvotb8CgMDSX5bx5ZdzWbRoMUt/+YVly5aTm7uhTrWys5vQtm0b2rdrR6dOHdlvv31o366t445FJCgKAMGbj8cAoI2A8WvDho189vlsvvxqLl98MZfcXHcXROXmbiA3dwNz58779X/Lzs5m//33Yb999+HAA3rTpEljZ+OJSHgpAARvLnCylwLaCBhfSkpK+PCjj3njjbeYPedLKisrwzZ2bm4ub745kzffnEkoFKJ3r/34y1+O57BD+1C/fv2w9SEi3ikABG+u1wKLFy+lsrKSUEh7OmPZ0qW/MGnyc7z73gcUFhYG3Q6VlZV89vkcPvt8DmlpaRx15OEMHNCf9u3bBd2aiNSCAkDwvvJaoKSkhGXLluuDN0bl5m7gyfH/5pVX3wjrt/1dUVhYyKuvvcHrb7zF3078Cxecfy7Z2dlBtyUif0BfGQNmrV0NrPFa5+t53zjoRiJJQUEBj48bz2lnnMX0Ga9F7OS/vcrKSma88hqnnTGARx97kq1bC4JuSUR2QgEgMnh+DLD9Ri2JbuXl5Ux7/j/0Pf1Mnn7mWYqLi4NuaZcVFxczYeIk+p7en+emvUBZWVnQLYnIbygARAbvAeBrrQBEu6qqKmbNepe/9z+b0Q+MZdOmzUG35Nnmzfk88ODDnNFvIG+9PYuqqqqgWxKRGgoAkcFzAMjNzWXFipUuepEA5ObmcsGwi7nx5ttZuXJV0O04t3r1Gm659U6GnDectWt1g6VIJFAAiAyeNwICzP1ajwGi0QL7PYPPvYBvv5sfdCu+s98v5Jwh8fF7FYl0CgARwFq7DFjvtY4CQPR5862ZDB9xaZ1P64tGGzfmcdFFl/P6G28F3YpIXFMAiBwfei2gjYDRo7KykkceHcett42ktLQ06HbCrrSsjNvvuIuxDz0aFW83iMQiBYDI8a7XAmvXrmPVqtUuehEfFRQUcNXVNzDx2SlBtxK4yVOmceVV11FQoNcFRcJNASByvOOiiB4DRLYVK1dx3vkX8vEnnwbdSsT49NPPGTJ0BCticPOjSCRTAIgQ1tqfqb4e2JPPZ3/hoBvxwwL7PecOGcaSJUuDbiXiLF36C+cOGcYC+33QrYjEDQWAyOL5McAnn3xGqQ5diTjr1+dy9TU3kJ+fH3QrESs/P5+rr7mB9evd3WgoIjunABBZPAeAwsJCZmsVIKKUlJTwz6uvD3ynf2piEi1T0+ia2ZBDsnM4qUUbTmrRhkOyc+ia2ZCWqWmkJgZ7PUhu7gb+efX1lJSUBNqHSDzQZUCRxXMAAHj//Q85pM9BLkqJA3eMHMXChT+EdcykhAS6ZjZiv0ZN2K9RNntkZlE/lFirf7aksoKF+Zv5Mi+XLzdtYMHmPMrDeILfwoU/cMfIUdx5+81hG1MkHikARBBr7RpjjAWMlzof/fcTysvLSUrSjzdoz0yYxKxZTnLdn0pJTOSE5q3p0ySHng0b1fnbfP1QIns1bMxeDRtzHlBUUcG3mzfyce5a3lizkqKKcreN78CsWe+yW6eOnDN4oO9jicQrzRCR5x08BoAtW7bw1Vdf07v3/o5akrr46KOPeXzceN/Hya6fwumt2nFKy3ZkJic7r5+amEjvxk3p3bgpwzp2YfqqZbywYinrS/y9pOjxcePp2KE9hx7ax9dxROKV9gBEnjddFHnvA8/nCokHixYv4eZb7/T18puO6RncvGdPXjrwSAa1282Xyf+3GiQlM7BtJ/5z4JHcYnrSMT3Dt7Gqqqq4+dY7WbR4iW9jiMQzBYDI8y6Q57XIhx9+rBPWArJp02b+edV1FBUV+VI/ORTigg5dmLD/IRzfvBVJCQm+jPNHkhISOC6nFRP2P4QLOnQhOeTPR0lRURH/vOq6mLgZUSTSKABEGGttGfCK1zp5eXnM++ZbBx3Jrrrv/gd9O5Fxj4wsnt6vD+e0343EACb+30pMSOCc9rvx9H592CMjy5cxVq1azX33P+hLbZF4pgAQmV5wUeTd9z5wUUZ2wfff/8A7777vvG5yKMSIjnswft+DfV12r6uO6RmM3/dgRnTcw5fVgHfefR/7/ULndUXimQJAZJoFeF7zfPvtd+LyopkgPfTIY86f+6cmJnJv9/05u10nQhHwrX9nQgkJnN2uE/d235/UxNq9clhbVVVVPPTQY05risQ7BYAIZK0tBV71WmfLli2+fBuVHfv0s9l89dXXTmtmJicztucB9Gqc7bSun3o1zmZszwOcb0qc+/U83aEg4pACQOR60UWRl1/2vJ1AaqGyspKHH3ncac2m9VN4bO+D6JrZ0GndcOia2ZDH9j6IpvVTnNZ9+JFx2twq4ogCQOR6G9jitci3381n0aLFDtqRP/LmWzOd/ntunpLKuH0OokN6A2c1w61DegPG7XMQzVNSndVcsmQpr772hrN6IvFMASBCWWuLgddc1HppulYB/FRaWsq4J55yVq9eKMRd3fZ1OnEGpXlKKnd125d6DjcGPvHkvyku9vcQIpF4oAAQ2Z53UeStt2bqA9NHz7/wH9auXees3lWdu9HFp1fqgtAlI4urOndzVi83dwNTpjr5T0MkrikARLbXgDVei2zdWsCsd95z0I781patW3nmmUnO6p3Ssi1/bdHGWb1I8dcWbTilZVtn9Z6dNFWHA4l4pAAQway15cAzLmq99NIMF2XkN956ayZbtm51UstkNuSK3bs6qRWJrti9K8bRhsbCwkJef+MtJ7VE4pUCQOQbD3h+sdx+v5AffvzJQTuyvddedzMJhRISuH6PHr4dqRsJkkMhrt+jh7OzDN54820ndUTiVex+2sQIa+0iwMnL/JMnP+eijNRYvHgJCxf+4KTWCTmtIvKEP9c6pmdwQk4rJ7V+/nkRP/30s5NaIvFIASA6POGiyKx33mPFipUuSgnwmqMl6HqhEEM7dnZSKxoM7djZ2VsBWgUQqTsFgOjwMpDrtUhlZSUTJk520I5A9VHLLpzRuj059aP/lb/ayqmfyhmt2zupNXPWu07qiMQjBYAoUHM08EQXtd54822nr6zFq8WLl5Cb6zmT0SApmUHtdnPQUXQZ1G43GiR5Pyo4N3cDixcvcdCRSPxRAIgeT7ooUl5ezrOTprooFde+muvmzP/jclqS4WAijDYZSckcl9PSSS1XPwuReKMAECWstQuBj1zUmvHKa2zcmOeiVNxydenPsY42xEUjV7931xcwicQLBYDoco+LIqWlpUyeMs1FqbhUVVXFV3Pnea7TIiWV7lmNHHQUnbpnNaKFg+OOv5o7z/kVzCLxQAEgilhrXwe+dVHrPy9NJz8/30WpuLNkyVIn/+7i+dv/Ni7+HeTn57NkyVLvzYjEGQWA6HO3iyJFRUU8N83JjcNxZ+nSX5zUOdbRM/Bo5urfgaufiUg8SQq6AdllzwN3Ah29Fpoy9Xn6nnoy2dlNvHcVR35ZttxzjQTguvlfeW8mBiTg/ahLFz+TeDNvnpPFRIliCgBRxlpbYYy5F3jMa62ioiIefewJbr7pOgedxY9fli3zXKMKWFZY4L0ZAdz8TOJJZWUl948eE3QbEjA9AohOT+PglkCoPhfg++/dHGcbL5b9om+bkUY/k10zfcar/KhjlOOeAkAUstaWAA+4qFVVVcXoB8a6KBU3lus45Yijn0ntbdmyhcfHjQ+6DYkACgDR63Fgk4tC3343X0eq7oKtjq7/FXf0M6m9x594is2b9QaQKABELWttPuDsq/vDjzxOSUmJq3Ixq7S0lMrKyqDbkN+orKyktLQ06DYi3qJFi3nppRlBtyERQgEgut0HODnYf+3adToiuBYKCguDbkF2Qj+bP3ff6DEKsPIrBYAoZq3dAtzmqt6zk6aybt16V+ViUlFhUdAtyE7oZ/PH3n3vA+Y6OMFSYocCQPR7AvjJRaHi4mLGjH3ERamYpcckkUs/m50rKSlh7NhHg25DIowCQJSz1pYDzl7kf+fd93n/Ayd3DsWkFi2aEwrpP5tIEwqFaNGiedBtRKwJEyezZu3aoNuQCKNPshhgrf0P8JmreqPuGc2mTZtdlYspKSkptG/fLug25Dfat29HSkpK0G1EpB9/+pmJz04Jug2JQAoAseNqV4Xy8vK47/4HXZWLOXt06Rx0C/Ib+pnsWGlpKbfceidlZWVBtyIRSAEgRlhrPwacvd8z65339ChgJ844oy+JiYlBtyE1QqEQp59+atBtRKRHH3uSxYuXBN2GRCgFgNhyLVDuqpgeBeyY2XMPBg8aEHQbUuPsgWfS1ewZdBsR58sv5/LctBeCbkMimAJADLHWLgSc3fChRwE7d96QwXTtaoJuI+516dKZoUPPDbqNiLNl61Zuv/Muqqq83rMosUwBIPbcAji7HF2PAnYsKSmJcY+NZdDZZ+mtgACEQiEGDOjP+CceoV5yctDtRJx7732AtWudnBEmMUyfXDHGWlsAXOyy5qh7RpO3ycm1AzElOTmZiy4cxuOPjeXoo46gdetWJCQkBN1WzEpISKB161YcfdQRPP7YWC69eAT16tULuq2IM+ud93h75jtBtyFRICnoBsQ9a+1rxpj/AKe5qJeXl8dNN93O2DH36dvuDuzVozt79egOQEFBAb8sW05lhY5bdSmUGKJd2zakp6cH3UpEW78+l1H3jA66DYkSCgCx61LgGCDTRbEvvvyKx8c9xYUjzndRLmalp6dj9twj6DYkDlVVVXH7nXexZcuWoFuanfykAAAgAElEQVSRKKGvczHKWrsKuMFlzYnPTua///3EZUkRceSZCZOYM+fLoNuQKKIAENseBea4KlZVVcWtt49kxYqVrkqKiAP//e8njHviqaDbkCijABDDrLWVwDAcng2wdWsB11x3ky5eEYkQS5Ys5eZb79Qrf7LLFABinLV2HnC3y5o//7yIu0bd57KkiNRBfn4+/7zqOgoLC4NuRaKQAkB8uA343GXBN9+cyX9ecnbysIjsosrKSm648VZWrFwVdCsSpRQA4kDNlcEDAKfbgx948CG+/W6+y5IiUksPjn2EOV98FXQbEsUUAOKEtXYxcJHLmmVlZfzzquv4Zdkyl2VF5E+89tqbTJv2YtBtSJRTAIgj1tpngakua27enM9ll1/Fhg0bXZYVkZ34bv4C7r7n/qDbkBigABB/RuDwrgCA1avXcMU/rtZGJBGfrV27jmuuvZGysrKgW5EYoAAQZ6y1m6neD1Dhsu4PP/7ENdfdRHm5szcORWQ7eXl5XHLplVptE2cUAOKQtfYTYKTrunPmfMmdI0fpfWQRx7Zs2cLFl16p/TbilAJA/LodmOW66JtvzeTRx55wXVYkbhUWFnLZ5Vfx88+Lgm5FYowCQJyy1lYA/QDnnyoTn53CCy++5LqsSNwpLi7mH1deywL7vR/lp/hRVKKHAkAcs9bmASfh+HwAgPtHj2X6jNdclxWJG2VlZVx97Y18Pe8bP8r/FxjiR2GJHgoAcc5aa4GBgNMH91VVVdw96j5efPFll2VF4kJFRQU33Hgbs2d/4Uf5H4FTrLW60CPOKQAI1tpXgJtd162qquLe+x9kytTnXZcWiVmVlZXcettIPvzov36UzwX+Yq3VqwSiACC/Ggn4crTYmLGPMGHiZD9Ki8SU6pWz+5k5610/yhcDJ1trtZtQAAUAqWGtrQLOAXx54PjoY08w/qln/CgtEhPKy8u57fZ/MeMVX/bOVAGDrbWf+lFcopMCgPzKWlsAnAKs86P+k+Of5tHHnvSjtEhUKyoq5sp/Xsebb830a4jrrbV6Fif/QwFA/oe1dilwPJDvR/0JEycx9qFH/SgtEpXyNm3iwosu4/PZc/wa4klr7d1+FZfopQAgv2Ot/Ro4GfBll/DkKdO49baRlOo8c4lzq1at5vwLLsJ+v9CvIWYCF/pVXKKbAoDskLX2A6A/ju8M2ObNt2Zy8cVXsGnTZj/Ki0S8n376maEXXMjy5Sv8GuI74AxrrS7okB1SAJCdstZOB4b5Vf+bb79jyNDhLP1F55tLfPnqq68ZNuJSPy/2WQ381Vrry6M8iQ0KAPKHrLVPAdf6VX/lylUMHTqCL778yq8hRCLKu+99wOVXXEVBQYFfQxQAJ1prl/s1gMQGBQD5U9baUcD9ftXfsnUrl11+lY4Olpg3eco0brzpNj/3v1QA/a21c/0aQGJHUtANSNS4CsgGBvtRvKKigrvuvpdly5Zx8UXDCYWUTSV2FBYWcufIUbz73gd+DlMKDLDWKklLrehTVmql5qCgIcDTfo4zeco0rr7mBrZscX4/kUggFi9ewjnnDvN78i+i+pQ/X07zlNikACC1Zq2tBM4DHvNznP9+/CkDzz6P7+Yv8HMYEd+9PfMdhgwdzi/LfN3omg8cZ619y89BJPYoAMgusdZWWWsvBEb7Oc6atWsZNvwSJj47haoqpxcViviurKyMe+97gJtvuYOiomI/h8oFjrTW+nJzkMQ2BQCpE2vtlVRfIOSbiooKHnl0HJdfcTV5eXl+DiXizNq16xg2/BJe/M90v4daBRxqrdUrNFInCgBSZ9baG4Eb/R7n89lzGDjoPL78UhubJbLNnv0Fg84ZygL7vd9DLQb6WOv/QBK7FADEE2vtSOBKv8fJzd3AJZddyRNP/pvKykq/hxPZJaVlZTz62BNc/o+rw3G6pQUOsdYu8XsgiW0KAOKZtXY0MALwdWaurKzkqX9PYMRFl7FixUo/hxKpte/mL+Dss4cwYeLkcITTL6le9l/l90AS+xQAxAlr7eNUXyC01e+x5s37ljMHnMMzEyZRXq5jziUYxcXFPPDgw1ww7OJwHWf9EdUb/jaEYzCJfQoA4kzNASSHAL5/PS8tLeWxx59k0OChzJ9v/R5O5H989dXXnDXwXJ6b9kK4Hkm9ARxvrdUBGeKMAoA4Za2dB/QCvg7HeIsWL+H8YRdx7/0P+nm2uggABQUF3D3qfi665ApWrgzbKvzzwCnW2qJwDSjxQQFAnKt5PnkI8Eo4xqusrOTFF1+m35mD+OBDvQ4t/vj008/pf9ZgXp7+SjjPpngYONNa69vlARK/FADEF9baAuBU4IFwjbl+fS7XXHsjV19zI+vWrQ/XsBLj1q/P5dbbRnLFldeE889VAdXn+l9ScwKniHO6DEh8U/PB9Q9jzE/AQ0BiOMb98KP/MnvOF/TvdzqDzj6L9PT0cAwrMaagoICJz05h6nMvUFJSEs6hvwdOt9Zqc4v4SisA4jtr7WPAUcDqcI1ZXFzMMxMmcepp/Zn63POU+Xf9qsSY8vJynn/hJfqefibPTJgU7sl/CrC/Jn8JBwUACQtr7YdAT2BWOMfdvDmfB8c8whn9BvLmWzN1iJD8offe+4B+Zw7i/tFjwnGgz/ZKgQuttQNqHp+J+E4BQMLGWrsOOB64GagI59irV6/h1v9r777DqyzPB45/z8nOSUJC9iQLSB72sIAMmVpFrQMcOOqottqltrW2WsfPalurba1tbWtrba2jzrauiguVISOEMN6wA2QAIQkhe+f3RwICZp/nfd9zkvtzXVxgOOd+HmKS+36f+cBDXHvdTaz5bJ2VTQsvkJe3hRu+dgs/uvs+Ow6Z2gfM7BwpE8IysgZAWKpzXcCDSqmVdAx3xlnZ/q5du7nt9h8wZcokvnnLzYwZo6xsXniYffv28/sn/8wnn6y0qwtvAdcYhiG3XQnLSQEgbGEYxkdKqYnAc3SsD7BUTk4uN3ztFsaPG8tlSy9h3ryz8PWVb4ehoL29nbXr1vOvl15lzZq1dl033Qr8BPi5YRhy37WwhfzEE7YxDOOwUupsOn4Q3osNU1Kbt2xl85atREVFccnFF3LJxRcSERFhdTeEBerr63nrrf/x0suvsf+AJUf3ducwcIVhGCvs7IQQUgAIW3VOCTyglHoPeBoYbUc/ysrK+PNTT/PMM8+yYOE8Ll+6hOxsW7oiNCsqLuHll1/jzbfepqbG9vV1n9CR/C3bESNEd6QAEB7BMIzVnVMCDwK3Y9GZAadram7mnXeW8847yxk3dgyXXXYp82V6wCutW7eBf730KqvXfOYJuz/agEeAewzDsHQBrBDdkZ9qwmMYhtEA/EAp9QrwNyDbzv5s2bqNLVu38XhUJJdc/BUuvuhChg+X6QFPVl/fwNvvvMtLL7/Kvn377e7OceuBWwzDyLG7I0KcTAoA4XEMw1irlJoEPAB8H5tGA44rKyvnz089zd+eeZaFC+Zx2WWXorKz7OySOE1JyUFefuU13njjbaprTL+Ruq8qgR8Df5LjfIUnkgJAeCTDMBqBu5RSr9IxGjDG5i7R3NzMO/9bzjv/W87YsYpzzl7E7FlnEh9v6U5G0am6pobP1qzl3fc+YNWqNZ4wzH+yZ4Hvd559IYRHkgJAeDTDMNYrpSYD9wA/AAJt7hIAW7cabN1q8NivHic9PY1ZM2cwa9aZjBs7BqdTztcyy779B1i1cjUrV60hb/MWWls9bjo9n44T/VbY3REheiMFgPB4hmE0AfcqpZ4GHgUutblLp9i7t4C9ewv4x7PPM2xYGGfOmM6sWWcyfdqXCAmRi4jc0dzcTO6mzaxctZpVK1dTVFxid5e6U0fHAtbH5Ope4S2kABBewzCMfcASpdRc4DfABFs71IVjx6pOTBP4+PgwceJ4Zs08k9mzziQ5Ocnu7nmFioqjrF79GStXrWbtug3U1dXZ3aXe/Bf4jmEYHrPqUIi+kAJAeB3DMFZ0TgvcRMdTV7TNXepSa2srOTm55OTk8vhvf09KSjKzZs5g9qyZTJgwDh8fW9c2epQdO3excuVqVq1ag5G/3a7T+fprPx2J/792d2QglFIOu/swSHnN51UKAOGVOldV/0kp9S86ThH8FuBnb696duBAIc8fKOT5F14iJMRFdlYWGRnpZGSkkZGRTnpaGkFBHrHEwTQtLS3sP1DI3j172bO3gD17CzCM7ZSVldndtf5oBh4DHjQMw+OHJ7qilIoB/mF3PwapXyql9huGsdrujvRGCgDh1QzDqATuUEr9CfgIiLe5S31SU1PL+g05rN/w+dZwh8NBQkI86elpZKSnkZmRTnpGOiNSkr3uIKK2tjZKSg6yZ+9e9uzpWCOxZ28BBw4U0tLSYnf33HEYmGcYRr7dHRkopdQC4J9YfBHXEJIIfKyU+qFhGL+yuzM98a6fKkJ0wzCMHUqpUrykAOhKe3s7xcUlFBeX8Omnq0583NfXlxEpyZ2jBZ2/0tOIj4/D4bB/tLG09Ah79hac8lRfULCPxsZGu7tmhkPemvyVUj50nK3xI+QqeLP5Ao8ppWYB1xuGcczuDnVFCgAhPFxLS8uJxMp7H5z4uI+PDy6Xi5AQFyEu1+d/DgnB1cXHQlyuzz8e4iLEFQJATW0NtbV11NTUUFtTS21tLTW1tdTU1HZ8rLaOmtoaampqT/v7jr/z8if6IUEplUzH9duz7O7LEHMxMF4ptcQwjE12d+Z0UgAI4aVaW1upqqqiqqrK7q4ID6aUmga8CUSZEd/pAaNQupj0b8kA1iilvm0Yxl/MaGCgZBhICCEGKaXUYuBDTEr+QT6+BPsMnufIKP8As0IHAk8ppZ5RSvmb1Uh/SQEghBCDkFLqeuDfQLBZbcQHBpkV2hbxQaZ9qo77KvCaUsq0SqM/pAAQQohBRil1N/A0Jk/zzo6KNTO85Sz69ywG/qOUsn3PrxQAQggxSCilHEqp3wM/Nbstp8PBRQkpZjdjqQxXKBPCh1vR1DnAG0opW4dQpAAQ4iSTJ00kNDTU7m4IzXx9fRk5MtPubljht8CtVjT09bTRxA6yKQCA748aS6A1p3QuBN5WStl2YYgUAEKc5Nprr+Kdt17n0V/+jHPOXjjoT+YbzJxOJ1OnTuZHd/2Ad956nTtu+7bdXTKVUur/6DgR03SLYhO4ZkSGFU1ZLsMVyl2jx1u1u2Eu8I5SKsSKxk43eJZvCqGJn58fs2d1XODT0NDApytXs/y9D1izZi3NzXLRmydzOByMHzeWRYvms2D+PIYPj7C7S5ZQSt0O/MTsdpwOBzenjeKaEYN7NOXs2ASiAwL4ybZcKppMP9BqNvCuUupcwzAs3dMrBYAQPQgMDGTRwvksWjif6poaVqz4hOXL32dDTi5tbW12d090ys4ezaKFC1i4YB6xsTF2d8dSnav9HzO7nZRgF/dkTWDssKFRVE0Kj+TZM+bwyM4tfHzkkNnNnQm8pZSab+V10lIACNFHoSEhXHD+eVxw/nlUVBzlgw8/YvnyD9iydZu33F43qGRkpHcUZ4sWkJSYYHd3bKGUugR4ChNvoHM6HCxLTudraaPwdw6tWeMIf39+NnYKyw+X8KtdW6kydwRwFh1rOG4xs5GTSQEgxAAMHx7B0iWXsHTJJRw6dJj33v+Qdes3sGXLVurrG+zu3qDk5+eHys7ijDOmsHDBPNLSUm3ukb2UUhPouNTHtBVraa5Q7skaT3ZYuFlNeIWzYxOYEhHJIzu28GnZYTOb+oZSKseqEwOlABDCTXFxsVxz9ZVcc/WVtLa2sn3HTjbl5pG7KY9NeVuorq62u4teKTAwkLFjFZMmTmDypImMGZNNQIBHnJ9iO6XUMOBVwJRl+E6Hg2tHZHD9iJH4DbGn/u5E+gfwi3FTeedQEb/eZVDTYtpowO+VUlsMw1hrVgPHSQEghEY+Pj6MUdmMUdlcddUVtLW1sWfPXnI3be4oCDblUVFx1O5ueiSXy8WE8WOZOHECkydPJDtrtNddg2wFpZQD+DsdZ8xrF+Lry4NjJjNteLQZ4b3euXFJnBERxU+25ZJ3rMKMJvzpOC1wimEYpi4+kO8uIUzkdDoZOTKTkSMzuWzpJQDsP3CA3NzNbNqUR25uHocOmzqk6LGGDQtj4oQJTJo0nsmTJjJyZCZOedrsix8CXzEjcEJQMI+OP4PUYFt2pXmNqIBAfjtxGg/kb+LD0oNmNJEAvKKUmmfmokApAISw2IiUFEakpHDRV84HoLT0CPv2H6CwsIiioiIKC4soLCqmpLiEJi/fduh0OomJiSY5KYnk5CSSkhJJSU4iZUQyKcnJOAbRTXJWUErNw6RT/iaGD+dnY6cwzM9j7qrxaH5OJw+OmUxsQD4vFO41o4mZwOOYeLCTFABC2CwmJpqYmGi+dMaUUz7e1tbG4cOlFBYVe3RxcDzJpyQnkdSZ6JOTEklOTiIhMQF/Pz+7uzgoKKWigRcxYdHf4vhk7hw1Vub7+8kBfDszm7jAIB7fbdCmfzfQLUqpzwzD+IfuwCAFgBAey+l0Eh8fR3x8XLfFQXFxCdXV1dTV11NXV0ddXcfv9fX11NbVUV9Xf8qf6+rqOl9bT0NDx26FgIAAgoOCCAoOIigo6MSfT/k9KJjg4CACAwMJ7nxdaEgIiYkJkuSt8zig/ZCDr47I5Ovpo3WHHVKWJqUSGxjIfds20djWqjv8b5RS/zMMo1R3YCkAhPBCJxcHA3X8ICOZd/d8SqnzgCt1x12alCrJX5M5UXH8btJ0bs9bS01Li87QEcCjwLU6g4LcBSDEkOV0OiX5e4HOc+Kf1B13cVwSt40cozvskDYmLJyfjZ2Kr/61Ldd0rv/QSr77hRDCsz0EaL13d150PD/KGm/e8YFD2JSISO7OnmBG6CeVUlpXaEoBIIQQHkopNR3NN/xNHx7N/WqiVbfdDUnnxCZys/6pldF0bAHVRgoAIYTwQJ0H/vwRjT+nR4aE8bNxU2S1vwWuG5HJhQlaB24AfqyU0nYAlHwVCCGEZ7oC0DaWHOzjy0/HTibAadrVAeI0Pxg1lhmRWk9UDAT+oCuYFABCCOFhlFI+wP06Y96VNY7kIJfOkKIXPg4HPx0zWffJimd33gLpNikAhBDC83wVGKUr2FcSUlgYMzSvTLZbkI8v92RP0L3m4m4dQaQAEEIID9K50vteXfEyQ8K4Xbb72UqFhbMsOV1nyMlKqYXuBpECQAghPMtNwAgdgYJ8fPjpmMn4e/Civ/rWVpo7D6VyR7WHHI3dnZvSRumeCrjT3QCe+1UhhBBDTOfTv5bhXYBrR2SSEux58/7NbW18WnaYe7flsnjVe5Q3Nbod89ubPuMbG1fzavF+jjY1aeilXn5OJ3frnQpYpJSa6E4AOQpYCCE8xxIgXkegxKBg3cPObttefYzXivez4sghalr0PrG3A5uPHWXzsaP8etc2poRHcm5cEmfHJnjMmQdjwsK5MjmN5w5ouz3wTmDZQN8sIwBCCOE5vqEr0Hczlcfs9y+ur+PebbncuGElbx4s1J78T9fW3s76o2X8X/4mrln/CSvLDpvaXn/clDaaEfqmAi5TSqUO9M2e8dUhhBBDnFJqDDBbR6zpw6OZFRWrI5RbKpub+PWubVy5dgXvl5ag/bLcPiioreHOLRu4NXcN26oqbejBqfydTm7J0HZKoA9wx0DfLAWAEEJ4Bi1P/74Oh0dc8vPWoSKWfvYRLxfto6XdjtR/qk2VFdyUs4qf5ufR0Kr9yt5+mR0VR2ZImK5wNyqlIgfyRikAhBDCZkopF5que12alGbrwr/mtjZ+uXMrD+XnUav3Wlwt3j5UxM0bV1NcX2dbHxzADakjdYULpuPUyH6TAkAIIey3DHD7kdDX4eDK5DQN3RmY0sYGbs1dw+vF+23rQ1/srqni+g0rWVVealsfzoqOI8MVqivcpQN5kxQAQghhv2t0BFkQk0BUQKCOUP2Wd6yC6zd86hHz7H1R09LMnZvX89d9u2xp3wFcr28UYI5SKqq/b5ICQAgh+k77fjKlVDQwU0esK2x6+t9WVckdees9cv99T9qBvxbs5C8FO21pf15MPGl6RgF8gAv7+yY5B0B4LaVUEjD3pF/arskUohvjlVJFwIrOXx8bhuHuI+QFaHgYmxQeyejQYe6G6bc9tdXckbeO+lbPm+/vq6f37SLMz4/LkqwtoDpGATK5d1uujnCXAk/35w1SAAivYUXCf//9D8kaPZKIiAjdoYWNKiuP8e7y93SFSwSu6vyFUqqEzmIAWGEYRn8fJy/S0Sk7nv6L6+u4bdNaqk3e12+Fx3cZhPj6cV5ckqXtzo2OJ9R3q47P4UKlVJhhGFV9fYOj3QO2ZwjRFbue8AMDA7n00ou45qorpBDwcpWVx3ju+Rd5+ZXXqa+vt6rZg5xaEOzo7oWdq//L6LjnfcCSgly8OO0sS0+8K29q5OacVRxssOzzajqnw8HPx06x/AyFn23fzBsHC3WEWmYYxgt9fbEUAMJjeNqQvhQC3sumxN+dQ3QWA3QUBNuP/4VS6mLgNXcbuDF1JDemabs9uE++v3k9q21cRW+WMD8/nvvSWUT6B1jW5rqKMm7LW6sj1KuGYSzp64ulABC2UUolA2fhIQm/O1IIeA8PS/zdOcznBcGXGcDirdM9c8ZsRuk7WKZXbx0q4qH8PMvas9qcqDh+Pm6KZe21tbdz/qr3qWx2exFlLRBtGEafvvilABCW6Uz4c0/65Vk3lfRCCgHP5SWJ3xSxgUG8PmO+Ze0daWzgqnWfmH6ev93uV5M4OzbBsvZ+uXOrrvMTZhuGsbIvL5RFgMI03p7wT9fQ0MBzz73Iq6/+WwoBDzGUE/9xsy2er/7Fji2WJH+Xry9R/oFEBQQQ4RdAbWsLZY0NlDc1crSp0fR7BX61aytTIiItmwpYEBOvqwCYCEgBIKw12BJ+d6QQsJ8k/s9ZWQCsOHLI1Hn/DFcoc6LjOCs6rscpjfKmRj4tO8wnRw6RU1lOc1ub9r5UNTfzu9353Kcmao/dlYnDhhPpH0B5U6O7oSb19YUyBSAGbKgk/N6cmBq4+koiwsPt7s6gJon/VCG+frw9axG+Fq3+vylnlSkn/amwcG5Nz2JyRP/vtDnS2MBfC3by5qEi2jTnMx+Hg5enzyMuMEhr3O48tH0zb7m/G2CjYRh9WsAgBYDoM0n4PQsMDGTJpRdz9dVXSCGgmST+ri2IiefBMZMtaSvvWAW3bFyjNWa4nz8/GD2WedHxbsfaX1fDIzu2kltZrqFnn7s8OY3vZiqtMbvzWvF+Ht251d0wjUCIYRi9nswkBYDollIqhVMTvn23jHiRoKBALr1ECgEdJPH37NaMLK5OsWbzzF1bcvik7JC2eOmuUB4ZP5WEwGBtMVva23l051b+W3JAW8wgH1/+feZ8Qn39tMXsTn5VJTfmrNIRaoJhGJt7e5GsARAnSMLXo76+gX8+9wKvvva6FAIDJIm/b6za+ldYX8vK8sPa4k0bHs3DYycT5KM3Bfk6HNw1ehwpQS5+tydfS8z61hZeL97PtSMytcTrSWZIGL4OBy3uP5hPBKQAEN2ThG8uKQT6TxJ//4wMsebs/38XH9A2v57mCuUhE5L/yZalpFPW1MCLhQVa4r1qUQHg53SSERLGjupj7oaaCPyjtxdJATCESMK3hxQCvZPE33+R/gFE+Ptb0tbaiiNa4oT5+fHIuKkEm5j8j/tWRjb7amv4TEPfjzQ2UFBbrevmvh5lhw7TVQD0SgqAQUwSvmeRQuCLJPEP3KhQa4b/K5oa2VtbrSXW90eNJTFI35x/T5wOB/erSSz97CMtlxVtOFpuSQGQFRYO7q9h6NO50FIADCJKqRF8nuzPQhI+AP4BQcQmp3PwwG5a3N9j6zYpBDw38fv6BxCfksnhor00efglN1YN/+cc1bOqPjssnAUx1p2sBx0jDtelZvLEbvfXA2w4WsbSpFT3O9WLbD1XOvfpB4oUAF7stIQ/F0i1rzeewz8giMT0LJIyFEmZipjENBxOJ3U1VeR89F/yVr/ncYXAkksv5qqrBn8h4MmJf8KZi5gy70KCQ8Job2ujtLiAoj35FO3eRknBDhob6uzu5ilSgl2WtJNztExLnG9lZGHdXYWfW5KYyitF+9y+tTC3spy29nbTb1yMDnDrYsjjXEopP8Mwehz6kG2AXkQSftf8A4NITPtiwu+OpxUCxwUFBQ7aQsBbEn932tvaOFKyj8LdBsV78yneu53G+loLe/pFPx83hTlRcaa3s2TNR5S4WfxkhQ7j6amzNPWo//55YA9/2LO99xf24i9TZqLCzP3ebGtvZ9aKt3WEijEMo8cFEFIAeDBJ+F3rb8LvjhQC5vP2xN+d9vZ2jpTsp2iPQdHubbYUBE9MnM6UAZyc1x/NbW2c9fE7bse5OW0016Wav4q+O/vrarhy7cdux7k3eyJfjkvU0KOeLfr0XWpbej3HpzejDMPY1dMLZArAg0jC75quhH+64JAwZl9wNVPmXehRhUB9fQPP/vMFXnnVe6cGBmviP87hcBCTmEpMYiqT55xHe3s7ZSX7KdqbT1HnKEFDXY3Gnn9RsI+PqfEBHdfTAjAn2toLi043IjiE5CAXhW4WaUebrfn5EOrrp6MA6PWHhhQANlJKpXLqor1U+3rjOcxK+N2RQkCfwZ74u+NwOIhOTCU6MZVJs8+F9nbKDhVStNvoGCXYm0+DppX0xwX7mv/j+6iGAiDcz590C1bP92ZSRKT7BUCTnoKoN6G+fhzC7e8fKQA8yWkJfy4wwr7eeI4TCT9zDEkZipjEVFMTfne8pRC4+qorCQ+3ZgV4Xw3VxN8th4Oo+BSi4lOYOPvLJwqC4j35FO4x2LN1Pe1u3mDnsmAv/VENX/9Reha1uS1WQz90fD76IsxPy7HDUgDYSRJ+1zwl4XdHCoG+8/jEP/cCgvVsq3LPSQXBhJLTSIsAABasSURBVFnn8OQ9N7q9ZsCSEQANT7zRAQEaeuK+GA0FQIWmKZHeaLp3QAoAK0nC75qnJ/zuSCHQPUn87nH3698Bph6le5yONQDD/TyjANAxEnHMuwqAXoe8pABwgyT8rnlrwu/O8UJg6rwL2bDiDTavWk6zhxUCS5dcwlXLrjC9EPDkxD9+xkKmzrvQoxP/ce7uJQ/08bFkT71LwyhDbavbi9m0qHF/UR0hFoy6ADS0tWoJ09sLpADoB6VUGqcu2pOEDwQEBpOQNnrQJPzuBIWEMfv8q5g69wKPKwT+8ezzvPzKa6YVApL49XI43Pv+aGxrs+RQmih/95+ayzzgewSgtNH9r9toDZ+Pvqhudv/oYqCqtxdIAdCD0xL+XCDFxu54jIDAYBI6T9pLzlREJwzOhN+doVQISOI3iZuJu629ncrmJob7mzu8rmP+vqyx1wdRSxzR0A9Np/T1SsfdBUCvNwpJAXASSfhdG+oJvzueXwi8ztIlFw+oEPDYxO/nz/gzF3lv4u/k0PDkXtHUaHoBEKnhibe0sYGq5mZdK9sHbFdNrw/EvbJqR4MUABaQhN81Sfj947mFQH2/CwFJ/NZwavh+0rFHvzfh/v74OBy0unFibFt7O6vKD3NuXJLGnvVPTUsLeZUVbsexagSgSs8UgBQAJ5OE37UvJPzENC1PKEONNxcCkvitFRAcAm5esmPFoTQOINI/gFI3h88/KbO3APisopQWDcfeyxSAF1FKBQHnARciCf8ESfjm8qZCAJDEbwNXaDg93tLSBxUWfU3FBQa5XQB8Vn7EkimL7rxzqFhLnLjAIC1xelLX2uLWiMtJhl4BoJQKpiPpLwUWA9bcmenBAgKDSczI7jhaNyNbEr5FvKEQOP7fnmKwJ/7jXGERbsew6lz6acOj2XzsqFsxGttaeXrfLr4/aqymXvXdpsoK1pSXuh1nVEgY4X7+GnrUs0p9IztDYxeAUspFR7Jf0vl7sL09sldAkIvEzif8pAxFdGKqJHwbnVwI5Kx4k7xV73pMIeApfP38O1b1z//KoE78x7k0XClr1bn0c6LjeKpgp9tx/lNygMuS0kgJtu6ZrB14Yk++llizo82/ehlgd637ixWBCsMwej34wGsLgM4n/QvoeNI/DzB/bMZDScL3DkEhYcw6fxlT5p7vUYWAnYZa4j9OxwjAwYY6DT3pXYYrlISgYErq3Wuvtb2dR3Zs4fGJ0/Cx6OfTK0X7yK+q1BJrTpQ1Nxpur+515L4vtvblRV5XACilQoFvAd8DzL0M20NJwvduUggM3cR/nEvDv3lbVSUt7e34WvC9f1ZUHC8U7nU7zsbKch7fbXDHyDEaetWzDUfL+O1uQ0us2MAgRlp0mdQOPQXAlr68yGsKAKVUGPBt4A5guM3dsZQk/MFpKBYCQz3xH6djBKChtZUd1ccYo2E6oTdzomK1FADQ8VSe7grlogTz1mQfqKvl7q0bdS2mY7ZFT/8gIwCnUEoNA74L3Aa4/13jBSThDy1DoRA4nvinzL8QV6j5CcvTDY9N1BInt7LckgJg3LAIwv38tVwOBPDLHVsob2zghrRR2u802FhZzo+35ujaSgdYVwCUNjboWtvh3SMASqlwOpL+d+nDtYbe7ETC7zxLPzphhCT8IWgwFgKS+LsWEORiWGQsx8oPuxUnt7KCq1MyNPWqe06Hg6VJqVoWA0LH4ry/7tvF3toa7sker+1mw/+UHOCxnVu17Pk/Lt0VypRwa2abt1frWa+At44AdM7x3wl8hz5cZ+iNJOGLnpwoBOZdQM5Hb3hlISCJv3dxKRluFwCbj1VYcikQwBXJ6bxWvJ9yjV+LHx05SN6xCm5IHcmFCSkDXs+w+dhR/rAn3+3til35Zka2JZ9f0Db8f8AwjD4F8qgCQCk1F3iGQXbLniR8MRBBrlCvKwQk8fddTFI6O3JXuxWjtqWFXTVVjLZgPUWQjw9fSxvFL3b0aXS5zyqaGnl051ZeLCzg4sQUzoqKIyGo953ctS0trKko5X+HilmtYZ9/VyZHRDIjMtqU2F3ZpOG4Yvr49A8eUgAopQKBh+kY8vf6zCgJX+h0SiGw4g3yVnpeIeDr58+4GQuZKom/z+I0Dd3nVlZYUgAAXBCfzL8KC9hXV6M9dlF9LU/szueJ3flkhoQxKXw40QGBRPkHEuHvT21LC2VNDZQ1NrKrpoqNleU0t7Vp78dxDuBbGdmmxT9deVOjrhGMvL6+0PYCQCk1FfgHYN1nWjNJ+MIKQa5QZi1expS5nlMISOIfuJjOEznb3Zyv3lRZwRXJaZp61TOnw8EtGVn8cMsGU9vZXVPFbg2397ljYWwCWRbuVPmw9CBtetYuvN/XF9pWACilfIF7gLvt7MdABAS5SDpxtK4iShK+sJAnFAKS+N3nFxBIREwiFYeL3IqTZ+E6AOhYET8pPJLcynJL2rODv9PJ19NHW9rmh6UHdYSpAj7t64ttSbxKKUXHU/8UO9rvL0n4whN9oRBYtZxmNy9t6Y0kfr1SRo11uwA41tzEyvLDzImy5qhagPvVRG7YsFLrgkBPcnfWBBICrTtR/khjA5uPaZn/f88wjD7vf7S0AFBKOYDbgYcAa+5VHABJ+MKbWFEISOI3R8bYM9j06f/cjvNS4T5LC4DogEB+Pm4qt+auMXUe3g5fHZHJotgES9v8sPQgmjYuvtWfF1tWAHQO+T8NXGNVm30lCV8MBmYUApL4zZWYnkVAkIvG+lq34mysLGd3TRWZFh1XCzAmLJy7Ro/jwfw+rznzeHOi4rjZ4qF/gA+OaBn+bwfe7s8bHO4uQOmLzot7Xqbj0h7bScIXQ0F9bfWACwFJ/Nb53/O/Z3tOn6dtu7U4Lom7sydo6FH//G5PPs8f0HNMsJ0yQ8L40+QZ2g4l6quShjqWrvlIxwjAesMwvtSfN5j+L1VKRQBvAmea3VZPQsMjyRh3BpnjvkRiWhYOp9PO7ghhuoGMCEjit17G2KlaCoDlpSXcmpFNhL/5d9af7Nb0LApqa1hj0l58Kwz3D+CRcVMtT/4A/9y/x5bhfzB5BEAplQi8C5h/9VMXImISyBx7Bpnjv0RssvnHZQrhyeprq8nP+ZTiPfmUFGynvrYa6BgRS0gdRULaaNSX5krit1hTYz1/uvdmWjWcXf+1tFHckDpSQ6/6p7mtjV/u3MqbBwstb9td6a5Qfjn+DOIDrb9R/nBDPZetXaFrHcVUwzBy+vMG0woApdRoOpK/paf6+fj4kjVlNpPmnEtUvHm3TdmtuamRt/7+K7fjXHTTj9yO8dbff01zk3tzzWdfeSvBIe7tuf3otafdPlp1xrmXE5uU7lYMr9DeTkVpCdDO8JhEkCkwW/3nL7+gID/X7TiR/gG8NmM+fjaNcP6rsIAn9uTr2s9uupmRMTwwZhLBNjz5AzyyYwv/LjmgI9Q2wzDG9vdNpvyrOw/3eQeIMiN+VwKCXIyfsZCJs8/FZcHtWHZra2tl33bPWHxzYNcWGuvr3IrRouEGrOKCHZSV7HcrxqQ5HrFMxXwOh7Yb6YT7xkybr6UAKG9q5IPSg3w5zp7/t5cnp5HqCuEn2zZS09JiSx/6allKOremZ1l2fsLpDjfU89Yh97aAnuQPA3mT9gJAKbUQeB0I0R27K6HhkUw6azFjp83DP8D6IRwhhHBXxpgphIZHUq3hcJ0XCvdydmyCbYlt2vBonpoykzs3b6DQzd0NZvBzOrlz9DgWxyXZ2o+/79+ta+i/Gnh2IG/UWgAopebQsRDB9FUoAUEuzjz3csbNWIDT6WN2c0IIYRqH08m4Mxex+u0X3Y61q6aKV4v3szQp1f2ODdCI4BCeOWM2/yos4LnCPdR6yGjA3Og4vpGeRUqwy9Z+aH76f9YwjOqBvFFbAaCUSgNexYLknzVlNnMuuJpgC89pFkIIM42dNp+1775Ca6v7yfKPe3cwJyqWWBsWth0X5OPDdamZXJSYwjP7dvN6yX7bDg2aHB7JrRlZKA+ZHv7bvl06PxcDGv4HTQWAUioE+C8mz/kPj01i/qU3kJShzGxGCCEsFxwSxsgJ09m+caXbsepbW3hk5xYeG9+vbeGmCPfz57aRisuT0/jz3h28V1pi2SLBzJAwbs3IYvpw66707c3GynLe0LdbYoVhGNsG+ma3CwCllBN4Duj3CsS+8vUPYPqiS5l81mKcPjLcL4QYnCbMPFtLAQCwpvwI7x4u5hwPWewZHxjEfWoiN6aNZMWRQ3x85BBGVaWuPfAnxAYEMSc6ljlRcUyOiPSo++XrW1t5OH+zzn/zgJ/+Qc8IwEPAhRridCk8Ko4Lrv8ekXHJZjUhhBAeIb7zPIaSgh1a4j2+y2Da8GjC/aw9HKgnSUEurk7J4OqUDMoaG/i07DAflx1m49EyWgY4MpDhCmVOdBxzomIZ7cFTw7/fk09Jg3s7pk5ylI4F9wPmVgGglLoKuMudGD1JHzOFc5Z9kwALb2USQgg7zVp8JS/97n4tsSqbm3h8l8F9aqKWeLpFBQRyceIILk4cQV1rC4V1tZQ3NVLW2MCRpkbKGxsoa2rkaFMjLl9fovwDiQwIIMo/kKjO3+MCg4gO8Ni75U7YcLSM14vd26Z8mgjgMuD5gQYYcAGglJoG/GWg7++Jw+Fg+jlLmbbwYjmgRAgxpCSkZZGmJlNgbNQS793DxZwdm8iMSM+ZB+9KsI+vRz+9u6OutYWHt2sd+j/uSaXUGsMwCgby5gEdF9V5xO/rmHClb0CQi6987YdMW3SJJH8hxJA0a/GVWi8oe2TnFmo0HDUsBuaJ3fkcaqg3I3QY8ELnbbv91u8CoLOh14H4gTTYk7Dh0Sy7/WFSszxzuEoIIawQGZdM9tQ52uIdbqjnzi0bbNuGN5S9X1rCf/Qc99udacADA3njQEYAvgOcMZDGejIsMoalt97HsMhY3aGFEMLrTD9nKT6+ftribaqs4D4j12vO6R8MNh4t58F8S45sv0spNbe/b+pXAaCUSmaAlUZPhkXGsvSb9xMaYdnVAUII4dHCIqKYNOdcrTFXHDnEb3YbWmOKru2preaurZaNujiBfyqlIvv7pv54HM1n/IdHxbH0m/cRMmy4zrBCCOH1pp+zlIhovbOtrxTt49n9e7TGFKcqbWzge3nrrL4QKZF+LszvcwGglDofuLi/PepJREyCJH8hhOiGr68fiy7/utYFgQBP7t3OO/rOohcnqWlp5o68dZQ2undF+gBdpJS6vq8v7lMBoJQKBn434C51IWTYcJbcci+usAidYYUQYlBJSMtiwqxztMd9ePtmPqs4oj3uUNbc1sYPt+Swt3ZAd/Po8nDn8fy96uvWgXuBEQPvz6l8fP04/7o7cHnIxQzeyM8vgHOv/o7d3QBg0WXfcPsCk6CQMLf7MWvxMhrdvH40OkHbl7kQ2sw870r2bttIVUWptpit7e3cvXUjv5s4jWz5Wey22pYWfrw1h1wNVzq7KQ64k4683SNHey8rQpVSY4BcQNty1IWX3czYafN1hRNCiEGvcPc2Xv3jT0HzKv4gHx9+kj2RudFxWuMOJYcb6vne5vV2P/mfrA4YZRhGcU8v6nEKQCnlAP6IxuQ/bvoCSf5CCNFPyZljmDxb764A6Lig5u6tOfylYKcZJ9UNejuqj/G1nFWelPwBgum4p6dHva0B+CowS0t3gLiUTOZe0uf1CUIIIU4y64KrTLkOvR14et8ufrQlh3o3p/OGktXlpdyau4bypka7u9KVa5Tq+RKIbguAzqf/H+nqSXDoMM6/7g58fHRcQCiEEEOP0+nDedfeZtrOqU/KDnFTzmpK6rXdWDdovVa8nzu3bKC+tdXurnTHCTzW2wu6cx4wSldP5l1yg2z3E0IINwWHhJn6MLW3tpobclay4WiZKfG9XU1LMz/Nz+PRnVu94VTF+Uqpxd39ZU8FwG26epCWPYmR46fpCieEEEOa2dOpVc3N3J63jpeL9pnWhjdaXV7KsnWf8La5Zyi8DfxdY7xHOkf0v6DLXQBKqbHAFh0t+/oHcO2djxEmx/wKIYRW77/8FFs/+8DUNiaED+f2kWMYpWGrrreqbmnmN7sMKw5P+gxYALiAHYCug3LOMQxj+ekf7G4EQNvT/4yzl0jyF0IIEyy49EYyTR5dzaus4IYNK/n5ji0cbWoytS1PtLLsMMvWfmxF8t8OnG8YRp1hGEeAezTGvqWrD35hBEApFQ0cAALdbTEqPoVld/wMp9PH3VBCCCG60Nbayht/e5SC/FzT2wrx9eX61JEsTUrDV/PxxJ6mqL6Wpwp28t7hEiuaKwbONAzjxL3BSiknsAGYpCF+KzDi9HMBuhoB+AYakr/D4WDhZTdL8hdCCBM5fXxYfN0dJGeOMb2tmpYWntidz9XrPmZNub5TCT3Jgbpa/i9/E1es/diq5H+UjiH6Ayd/0DCMNuCboOV4Bh/ga6d/8JQRAKWUP7CfjqME3ZI5fhrnf/V2d8MIIYTog+amRl7700Mc3LfTsjZnRMZwc9ooRocOs6xNs+yvq+GZfbt5r7TEytX99cAiwzBWdfcCpdTfgWs1tFVMxyjAiX2Lp48AXIGG5A9wxvwLdYQRQgjRB37+AVx0013EJKVb1uaa8lKu37CSa9d/yktFBVQ2e98agb211dxn5HLVuk9493Cxlcm/CljcU/Lv9DB6RgESgQtO/sDpIwAbgCnutpKcOYZLb/mJu2GEEEL0U1NjPW8+8ysO7NSykatf/JxOZkbGsDg+mRnDo3F66DqBkvo6Pig9yHulJeyuqbKjCweBcw3DyOvLi5VSrwMXaWh3uWEYJ66WPFEAKKWSgEINDXDxzT9mxOjxOkIJIYTop7bWVt771x/Jz/nUtj5E+gdwblwS58UnkRrcp9tpTVXa2MAHpSV8UHoQo6rSzq5sB75sGMb+vr5BKTUDWK2h7XZgpGEYe+DUAuBG4C/uRo9JTGXZHT93N4wQQgg3rXr7RdZ/8G+7u0GaK5Ts0GGMDh1GVugwRoaEEehj7gLxI40NbK8+Rn5VJbmVFWw+VuEJlx2tAS4wDKPfdwYrpVYCMzX04X7DMB4AOPksyS9rCMzU+V/REUYIIYSbZp53BaHhkXz0+t9ob2uzrR8FtdUU1FafOEHP6XAwIjiE0aFhZHUWBqNChhE0gKKgua2NyuYmdtdUkd+Z8LdXH/PEC3reAC43DKN+gO9/BPiPhn4sAh6AzhEApZQPUAaEuxPV4XAwfubZOB29XTIohBDCKoW7t1F28EDvL7SR0+EgxNeXEB8/XL6+hPj6dfy3rx/BPj40tLVR3dxMVUsT1c3NVLd0/PLgy3hOVgv8jY79+APlAG7l1Af3gWgBhhuGUX28ADgT6G0lohBCCCG83wWGYbx5/FFdy/C/EEIIITzeQvj8HIBzenihEEIIIQaPhQCO7OzsSKCUnq8GFkIIIcTgkeCkY0WgJH8hhBBi6FjgROb/hRBCiKFmoRMNR/8KIYQQwqtMceLevkQhhBBCeJ9WJ+BxxyUJIYQQwlSNTsD77m8UQgghhDuanMAKu3shhBBCCEutcGRnZ0cABcAwu3sjhBBCCNMdA9KchmEcBR63uzdCCCGEsMTjhmEcPX4A0K+AdXb2RgghhBCmW0dHzu84AdAwjGPAbOBJGzslhBBCCPM8CczuzPk42tvbT/lbpdTVwG3ARMDH8u4JIYQQQpdWYBPwG8Mw/nnyX3yhADhOKeUCpgNTgSCzeyiEEEIIbeqBDcBnhmHUdvWC/weybYa/hVxdFQAAAABJRU5ErkJggg==;sketch=0;" parent="bA95F1Ph_PGz0Y281SqP-25" vertex="1">
          <mxGeometry x="15" y="13.75" width="47.5" height="47.5" as="geometry" />
        </mxCell>
        <mxCell id="bA95F1Ph_PGz0Y281SqP-12" value="" style="shape=image;html=1;verticalAlign=top;verticalLabelPosition=bottom;labelBackgroundColor=#ffffff;imageAspect=0;aspect=fixed;image=https://cdn2.iconfinder.com/data/icons/covid-19-2/64/07-Fever-128.png;rounded=1;shadow=1;glass=0;labelBorderColor=none;sketch=0;fontFamily=Helvetica;fontSize=12;fontColor=#000033;strokeColor=default;strokeWidth=1;fillColor=#9AC7BF;gradientColor=none;gradientDirection=south;opacity=80;" parent="bA95F1Ph_PGz0Y281SqP-25" vertex="1">
          <mxGeometry x="15" y="13.75" width="47.5" height="47.5" as="geometry" />
        </mxCell>
        <mxCell id="c6ZBSCJWF5Pe1CVGmaO6-1" value="&lt;b&gt;&lt;font style=&quot;font-size: 14px&quot; color=&quot;#33001a&quot;&gt;temperature &amp;gt;&lt;br&gt;37&lt;sup&gt;0&lt;/sup&gt;C?&lt;/font&gt;&lt;/b&gt;" style="rhombus;whiteSpace=wrap;html=1;rounded=0;shadow=1;glass=0;labelBackgroundColor=none;labelBorderColor=none;sketch=0;fontFamily=Helvetica;fontSize=9;strokeColor=#33001A;strokeWidth=2;fillColor=#FFCCE6;gradientDirection=south;align=center;verticalAlign=middle;fillStyle=solid;" vertex="1" parent="bA95F1Ph_PGz0Y281SqP-25">
          <mxGeometry x="15" y="160" width="140" height="120" as="geometry" />
        </mxCell>
        <mxCell id="c6ZBSCJWF5Pe1CVGmaO6-3" style="edgeStyle=orthogonalEdgeStyle;sketch=0;orthogonalLoop=1;jettySize=auto;html=1;exitX=0.5;exitY=1;exitDx=0;exitDy=0;shadow=0;fontFamily=Helvetica;fontSize=9;fontColor=#660066;endArrow=classic;endFill=0;strokeColor=#003333;strokeWidth=2;entryX=0.5;entryY=0;entryDx=0;entryDy=0;rounded=1;" edge="1" parent="bA95F1Ph_PGz0Y281SqP-25" source="bA95F1Ph_PGz0Y281SqP-6" target="c6ZBSCJWF5Pe1CVGmaO6-1">
          <mxGeometry relative="1" as="geometry">
            <mxPoint x="190" y="240" as="targetPoint" />
            <mxPoint x="225" y="100" as="sourcePoint" />
          </mxGeometry>
        </mxCell>
        <mxCell id="bA95F1Ph_PGz0Y281SqP-37" style="edgeStyle=orthogonalEdgeStyle;sketch=0;orthogonalLoop=1;jettySize=auto;html=1;exitX=0;exitY=0.5;exitDx=0;exitDy=0;exitPerimeter=0;shadow=0;fontFamily=Helvetica;fontSize=9;fontColor=#660066;endArrow=classic;endFill=0;strokeColor=#003333;strokeWidth=2;entryX=0.5;entryY=0;entryDx=0;entryDy=0;rounded=1;" parent="1" source="bA95F1Ph_PGz0Y281SqP-4" target="bA95F1Ph_PGz0Y281SqP-6" edge="1">
          <mxGeometry relative="1" as="geometry">
            <mxPoint x="150" y="-440.0000000000001" as="targetPoint" />
          </mxGeometry>
        </mxCell>
        <mxCell id="bA95F1Ph_PGz0Y281SqP-38" style="edgeStyle=orthogonalEdgeStyle;sketch=0;orthogonalLoop=1;jettySize=auto;html=1;exitX=1;exitY=0.5;exitDx=0;exitDy=0;exitPerimeter=0;shadow=0;fontFamily=Helvetica;fontSize=9;fontColor=#660066;endArrow=classic;endFill=0;strokeColor=#003333;strokeWidth=2;rounded=1;" parent="1" source="bA95F1Ph_PGz0Y281SqP-4" target="bA95F1Ph_PGz0Y281SqP-19" edge="1">
          <mxGeometry relative="1" as="geometry">
            <mxPoint x="520" y="-440.0000000000001" as="targetPoint" />
          </mxGeometry>
        </mxCell>
        <mxCell id="bA95F1Ph_PGz0Y281SqP-18" value="" style="group;fillColor=#CCFFE6;strokeColor=#001933;shadow=1;sketch=0;fillStyle=solid;rounded=1;opacity=80;strokeWidth=2;" parent="1" vertex="1" connectable="0">
          <mxGeometry x="390" y="-450" width="170" height="76.5" as="geometry" />
        </mxCell>
        <mxCell id="bA95F1Ph_PGz0Y281SqP-19" value="&lt;div style=&quot;font-size: 14px&quot;&gt;&lt;font style=&quot;font-size: 14px&quot;&gt;&lt;b&gt;&amp;nbsp; &amp;nbsp; &amp;nbsp; &amp;nbsp; &amp;nbsp; &amp;nbsp; &amp;nbsp; &amp;nbsp; &amp;nbsp; Trained DL&amp;nbsp;&lt;/b&gt;&lt;/font&gt;&lt;/div&gt;&lt;div style=&quot;font-size: 14px&quot;&gt;&lt;font style=&quot;font-size: 14px&quot;&gt;&lt;b&gt;&amp;nbsp; &amp;nbsp; &amp;nbsp; &amp;nbsp; &amp;nbsp; &amp;nbsp; &amp;nbsp; &amp;nbsp; &amp;nbsp; Architectures&amp;nbsp;&lt;/b&gt;&lt;/font&gt;&lt;/div&gt;" style="rounded=1;whiteSpace=wrap;html=1;absoluteArcSize=1;arcSize=14;strokeWidth=1;shadow=1;glass=0;sketch=0;fontFamily=Helvetica;fontSize=12;fillColor=#CCFFE6;gradientDirection=south;align=left;strokeColor=#23445d;fillStyle=solid;" parent="bA95F1Ph_PGz0Y281SqP-18" vertex="1">
          <mxGeometry width="170" height="75" as="geometry" />
        </mxCell>
        <mxCell id="bA95F1Ph_PGz0Y281SqP-22" value="" style="sketch=0;points=[[0,0,0],[0.25,0,0],[0.5,0,0],[0.75,0,0],[1,0,0],[0,1,0],[0.25,1,0],[0.5,1,0],[0.75,1,0],[1,1,0],[0,0.25,0],[0,0.5,0],[0,0.75,0],[1,0.25,0],[1,0.5,0],[1,0.75,0]];outlineConnect=0;fontColor=#232F3E;gradientDirection=north;fillColor=none;strokeColor=#660033;dashed=0;verticalLabelPosition=bottom;verticalAlign=top;align=center;html=1;fontSize=12;fontStyle=0;aspect=fixed;shape=mxgraph.aws4.resourceIcon;resIcon=mxgraph.aws4.deep_learning_amis;rounded=1;shadow=1;glass=0;labelBackgroundColor=none;labelBorderColor=none;fontFamily=Helvetica;gradientColor=#7EA6E0;" parent="bA95F1Ph_PGz0Y281SqP-18" vertex="1">
          <mxGeometry x="10" y="12.5" width="51.5" height="51.5" as="geometry" />
        </mxCell>
        <mxCell id="bA95F1Ph_PGz0Y281SqP-33" value="" style="group;sketch=0;rounded=1;shadow=1;" parent="1" vertex="1" connectable="0">
          <mxGeometry x="390" y="-330" width="170" height="80" as="geometry" />
        </mxCell>
        <mxCell id="bA95F1Ph_PGz0Y281SqP-24" value="&lt;div style=&quot;text-align: justify ; font-size: 14px&quot;&gt;&lt;font color=&quot;#001933&quot; style=&quot;font-size: 14px&quot;&gt;&lt;b&gt;&amp;nbsp; &amp;nbsp; &amp;nbsp; &amp;nbsp; &amp;nbsp; &amp;nbsp; &amp;nbsp; &amp;nbsp; &amp;nbsp; &amp;nbsp;&lt;/b&gt;&lt;/font&gt;&lt;/div&gt;&lt;font color=&quot;#001933&quot; style=&quot;font-size: 14px&quot;&gt;&lt;b&gt;&lt;span style=&quot;text-align: justify&quot;&gt;&amp;nbsp; &amp;nbsp; &amp;nbsp; &amp;nbsp; &amp;nbsp; &amp;nbsp;Calculation of&lt;br&gt;&lt;/span&gt;&lt;span style=&quot;text-align: justify&quot;&gt;&amp;nbsp; &amp;nbsp; &amp;nbsp; &amp;nbsp; &amp;nbsp; &amp;nbsp; &amp;nbsp; real time Mask&amp;nbsp;&lt;/span&gt;&lt;span style=&quot;text-align: justify&quot;&gt;&lt;br&gt;&lt;/span&gt;&lt;/b&gt;&lt;/font&gt;&lt;div style=&quot;text-align: justify ; font-size: 14px&quot;&gt;&lt;font color=&quot;#001933&quot; style=&quot;font-size: 14px&quot;&gt;&lt;b&gt;&amp;nbsp; &amp;nbsp; &amp;nbsp; &amp;nbsp; &amp;nbsp; &amp;nbsp; &amp;nbsp; detection&amp;nbsp;&lt;/b&gt;&lt;/font&gt;&lt;/div&gt;&lt;div style=&quot;text-align: justify ; font-size: 14px&quot;&gt;&lt;font color=&quot;#001933&quot; style=&quot;font-size: 14px&quot;&gt;&lt;b&gt;&amp;nbsp; &amp;nbsp; &amp;nbsp; &amp;nbsp; &amp;nbsp; &amp;nbsp; &amp;nbsp; &amp;nbsp; &amp;nbsp; &amp;nbsp;&lt;/b&gt;&lt;/font&gt;&lt;/div&gt;" style="rounded=1;whiteSpace=wrap;html=1;absoluteArcSize=1;arcSize=14;strokeWidth=2;shadow=1;glass=0;sketch=0;fontFamily=Helvetica;fontSize=12;fillColor=#CCFFE6;gradientDirection=south;align=center;strokeColor=#001933;fillStyle=solid;" parent="bA95F1Ph_PGz0Y281SqP-33" vertex="1">
          <mxGeometry width="170" height="75" as="geometry" />
        </mxCell>
        <mxCell id="0KPqDLh-8omkB_JSvhn1-30" value="" style="shape=image;html=1;verticalAlign=top;verticalLabelPosition=bottom;labelBackgroundColor=#ffffff;imageAspect=0;aspect=fixed;image=https://cdn4.iconfinder.com/data/icons/coronavirus-information/128/facial_mask_coronavirus-128.png;rounded=1;shadow=1;glass=0;labelBorderColor=none;sketch=0;fontFamily=Helvetica;fontSize=9;fontColor=#000066;strokeColor=#660033;strokeWidth=1;fillColor=none;gradientColor=#7EA6E0;gradientDirection=south;imageBackground=none;" parent="bA95F1Ph_PGz0Y281SqP-33" vertex="1">
          <mxGeometry x="10" y="10" width="50" height="50" as="geometry" />
        </mxCell>
        <mxCell id="bA95F1Ph_PGz0Y281SqP-59" style="edgeStyle=orthogonalEdgeStyle;sketch=0;orthogonalLoop=1;jettySize=auto;html=1;exitX=0.5;exitY=1;exitDx=0;exitDy=0;shadow=0;fontFamily=Helvetica;fontSize=9;fontColor=#660066;endArrow=classic;endFill=0;strokeColor=#003333;strokeWidth=2;entryX=0.5;entryY=0;entryDx=0;entryDy=0;rounded=1;" parent="1" source="bA95F1Ph_PGz0Y281SqP-19" target="bA95F1Ph_PGz0Y281SqP-24" edge="1">
          <mxGeometry relative="1" as="geometry">
            <mxPoint x="514.7931034482758" y="-320.0000000000001" as="targetPoint" />
          </mxGeometry>
        </mxCell>
        <mxCell id="jhDbc5O9KZjzmxZdwlpp-6" style="edgeStyle=orthogonalEdgeStyle;rounded=1;sketch=0;orthogonalLoop=1;jettySize=auto;html=1;exitX=0.5;exitY=1;exitDx=0;exitDy=0;entryX=1;entryY=0.5;entryDx=0;entryDy=0;shadow=0;fontSize=10;endArrow=classic;endFill=0;strokeWidth=2;strokeColor=#003333;" parent="1" source="bA95F1Ph_PGz0Y281SqP-60" target="bA95F1Ph_PGz0Y281SqP-70" edge="1">
          <mxGeometry relative="1" as="geometry" />
        </mxCell>
        <mxCell id="jhDbc5O9KZjzmxZdwlpp-8" value="&lt;b&gt;No&lt;/b&gt;" style="edgeLabel;html=1;align=center;verticalAlign=middle;resizable=0;points=[];fontSize=12;fontFamily=Helvetica;fontColor=#000033;" parent="jhDbc5O9KZjzmxZdwlpp-6" vertex="1" connectable="0">
          <mxGeometry x="-0.5047" y="-2" relative="1" as="geometry">
            <mxPoint x="2" as="offset" />
          </mxGeometry>
        </mxCell>
        <mxCell id="jhDbc5O9KZjzmxZdwlpp-11" style="edgeStyle=orthogonalEdgeStyle;rounded=1;sketch=0;orthogonalLoop=1;jettySize=auto;html=1;exitX=1;exitY=0.5;exitDx=0;exitDy=0;entryX=1;entryY=0.5;entryDx=0;entryDy=0;shadow=0;fontFamily=Helvetica;fontSize=12;fontColor=#000033;endArrow=classic;endFill=0;strokeWidth=2;strokeColor=#003333;" parent="1" source="bA95F1Ph_PGz0Y281SqP-60" target="bA95F1Ph_PGz0Y281SqP-63" edge="1">
          <mxGeometry relative="1" as="geometry" />
        </mxCell>
        <mxCell id="jhDbc5O9KZjzmxZdwlpp-12" value="&lt;b&gt;Yes&lt;/b&gt;" style="edgeLabel;html=1;align=center;verticalAlign=middle;resizable=0;points=[];fontSize=12;fontFamily=Helvetica;fontColor=#000033;" parent="jhDbc5O9KZjzmxZdwlpp-11" vertex="1" connectable="0">
          <mxGeometry x="-0.4024" y="2" relative="1" as="geometry">
            <mxPoint x="-2" y="-44" as="offset" />
          </mxGeometry>
        </mxCell>
        <mxCell id="bA95F1Ph_PGz0Y281SqP-60" value="&lt;b style=&quot;font-size: 14px&quot;&gt;&lt;font style=&quot;font-size: 14px&quot; color=&quot;#33001a&quot;&gt;&amp;nbsp;&amp;nbsp;found properly worn mask ?&lt;/font&gt;&lt;/b&gt;" style="rhombus;whiteSpace=wrap;html=1;rounded=0;shadow=1;glass=0;labelBackgroundColor=none;labelBorderColor=none;sketch=0;fontFamily=Helvetica;fontSize=9;strokeColor=#33001A;strokeWidth=2;fillColor=#FFCCE6;gradientDirection=south;align=center;verticalAlign=middle;fillStyle=solid;" parent="1" vertex="1">
          <mxGeometry x="405" y="-210" width="140" height="120" as="geometry" />
        </mxCell>
        <mxCell id="bA95F1Ph_PGz0Y281SqP-61" style="edgeStyle=orthogonalEdgeStyle;curved=1;sketch=0;orthogonalLoop=1;jettySize=auto;html=1;exitX=0.5;exitY=1;exitDx=0;exitDy=0;entryX=0.5;entryY=0;entryDx=0;entryDy=0;shadow=1;fontFamily=Helvetica;fontSize=9;fontColor=#660066;endArrow=classic;endFill=0;strokeColor=#190033;strokeWidth=2;" parent="1" source="bA95F1Ph_PGz0Y281SqP-24" target="bA95F1Ph_PGz0Y281SqP-60" edge="1">
          <mxGeometry relative="1" as="geometry" />
        </mxCell>
        <mxCell id="bA95F1Ph_PGz0Y281SqP-62" value="" style="group;rounded=1;shadow=1;sketch=0;" parent="1" vertex="1" connectable="0">
          <mxGeometry x="252.5" y="50" width="170" height="80" as="geometry" />
        </mxCell>
        <mxCell id="bA95F1Ph_PGz0Y281SqP-63" value="&lt;font style=&quot;font-size: 14px&quot;&gt;&lt;b&gt;&lt;font color=&quot;#000033&quot; style=&quot;font-size: 14px&quot;&gt;Flash green signal&lt;/font&gt;&lt;/b&gt;&lt;br&gt;&lt;b&gt;&lt;font color=&quot;#000033&quot; style=&quot;font-size: 14px&quot;&gt;Allow access&amp;nbsp; &amp;nbsp; &amp;nbsp; &amp;nbsp; &amp;nbsp;&lt;/font&gt;&lt;/b&gt;&lt;/font&gt;" style="rounded=1;whiteSpace=wrap;html=1;absoluteArcSize=1;arcSize=14;strokeWidth=2;shadow=1;glass=0;sketch=0;fontFamily=Helvetica;fontSize=12;fillColor=#CCFFE6;gradientDirection=south;align=right;strokeColor=#001933;fillStyle=solid;" parent="bA95F1Ph_PGz0Y281SqP-62" vertex="1">
          <mxGeometry width="170" height="75" as="geometry" />
        </mxCell>
        <mxCell id="bA95F1Ph_PGz0Y281SqP-67" value="" style="shape=image;html=1;verticalAlign=top;verticalLabelPosition=bottom;labelBackgroundColor=#ffffff;imageAspect=0;aspect=fixed;image=https://cdn2.iconfinder.com/data/icons/donkey/800/2-128.png;rounded=0;shadow=1;glass=0;labelBorderColor=none;sketch=1;fontFamily=Helvetica;fontSize=10;fontColor=#330066;strokeColor=#660033;strokeWidth=1;fillColor=none;gradientColor=#7EA6E0;gradientDirection=south;opacity=70;" parent="bA95F1Ph_PGz0Y281SqP-62" vertex="1">
          <mxGeometry y="10.25" width="54.5" height="54.5" as="geometry" />
        </mxCell>
        <mxCell id="bA95F1Ph_PGz0Y281SqP-69" value="" style="group;shadow=1;sketch=0;glass=0;rounded=1;" parent="1" vertex="1" connectable="0">
          <mxGeometry x="252.5" y="-80" width="170" height="80" as="geometry" />
        </mxCell>
        <mxCell id="bA95F1Ph_PGz0Y281SqP-70" value="&lt;div style=&quot;font-size: 14px&quot;&gt;&lt;div style=&quot;text-align: left&quot;&gt;&lt;b&gt;&lt;font color=&quot;#000033&quot;&gt;&amp;nbsp; &amp;nbsp; &amp;nbsp; &amp;nbsp; &amp;nbsp; &amp;nbsp;Flash red signal&amp;nbsp;&amp;nbsp;&lt;/font&gt;&lt;/b&gt;&lt;/div&gt;&lt;b&gt;&lt;div style=&quot;text-align: left&quot;&gt;&lt;b&gt;&lt;font color=&quot;#000033&quot;&gt;&amp;nbsp; &amp;nbsp; &amp;nbsp; &amp;nbsp; &amp;nbsp; &amp;nbsp;Block access&amp;nbsp; &amp;nbsp; &amp;nbsp; &amp;nbsp;&lt;/font&gt;&lt;/b&gt;&lt;/div&gt;&lt;/b&gt;&lt;/div&gt;" style="rounded=1;whiteSpace=wrap;html=1;absoluteArcSize=1;arcSize=14;strokeWidth=2;shadow=1;glass=0;sketch=0;fontFamily=Helvetica;fontSize=12;fillColor=#FFE6CC;gradientDirection=south;align=right;strokeColor=#001933;fillStyle=solid;" parent="bA95F1Ph_PGz0Y281SqP-69" vertex="1">
          <mxGeometry width="170" height="75" as="geometry" />
        </mxCell>
        <mxCell id="jhDbc5O9KZjzmxZdwlpp-27" value="" style="group" parent="bA95F1Ph_PGz0Y281SqP-69" vertex="1" connectable="0">
          <mxGeometry x="7.25" y="12.5" width="40" height="50" as="geometry" />
        </mxCell>
        <mxCell id="jhDbc5O9KZjzmxZdwlpp-21" value="" style="shape=umlActor;html=1;verticalLabelPosition=bottom;verticalAlign=top;align=center;rounded=1;shadow=1;glass=0;labelBackgroundColor=#FF6666;sketch=0;fontFamily=Helvetica;fontSize=12;fontColor=#000033;fillColor=#009999;gradientDirection=south;opacity=80;" parent="jhDbc5O9KZjzmxZdwlpp-27" vertex="1">
          <mxGeometry width="20" height="50" as="geometry" />
        </mxCell>
        <mxCell id="jhDbc5O9KZjzmxZdwlpp-23" value="" style="verticalLabelPosition=bottom;verticalAlign=top;html=1;shape=mxgraph.basic.no_symbol;rounded=1;shadow=1;glass=0;labelBackgroundColor=#FF6666;sketch=0;fontFamily=Helvetica;fontSize=12;fontColor=#000033;fillColor=#FF3333;gradientDirection=south;opacity=80;strokeColor=default;" parent="jhDbc5O9KZjzmxZdwlpp-27" vertex="1">
          <mxGeometry x="10" y="20" width="30" height="30" as="geometry" />
        </mxCell>
        <mxCell id="bA95F1Ph_PGz0Y281SqP-83" value="" style="group" parent="1" vertex="1" connectable="0">
          <mxGeometry x="252.5" y="170" width="190" height="80" as="geometry" />
        </mxCell>
        <mxCell id="bA95F1Ph_PGz0Y281SqP-84" value="&lt;div style=&quot;text-align: justify ; font-size: 14px&quot;&gt;&lt;font color=&quot;#000033&quot; style=&quot;font-size: 14px&quot;&gt;&lt;b&gt;&lt;font style=&quot;font-size: 14px&quot;&gt;&amp;nbsp; &lt;/font&gt;Disinfect person&amp;nbsp;&lt;/b&gt;&lt;/font&gt;&lt;/div&gt;&lt;div style=&quot;text-align: justify ; font-size: 14px&quot;&gt;&lt;font color=&quot;#000033&quot; style=&quot;font-size: 14px&quot;&gt;&lt;b&gt;&amp;nbsp; and his&amp;nbsp; &amp;nbsp; &amp;nbsp; &amp;nbsp; &amp;nbsp; &amp;nbsp; &amp;nbsp; &amp;nbsp; &amp;nbsp;&lt;/b&gt;&lt;/font&gt;&lt;/div&gt;&lt;div style=&quot;text-align: justify ; font-size: 14px&quot;&gt;&lt;font color=&quot;#000033&quot; style=&quot;font-size: 14px&quot;&gt;&lt;b&gt;&amp;nbsp; possessions&lt;font style=&quot;font-size: 14px&quot;&gt;&amp;nbsp; &amp;nbsp; &amp;nbsp; &amp;nbsp;&amp;nbsp;&lt;/font&gt;&lt;/b&gt;&lt;/font&gt;&lt;/div&gt;" style="rounded=1;whiteSpace=wrap;html=1;absoluteArcSize=1;arcSize=14;strokeWidth=2;shadow=1;glass=0;sketch=0;fontFamily=Helvetica;fontSize=12;fillColor=#CCFFE6;gradientDirection=south;align=right;strokeColor=#003333;fillStyle=solid;" parent="bA95F1Ph_PGz0Y281SqP-83" vertex="1">
          <mxGeometry x="-10" width="190" height="75" as="geometry" />
        </mxCell>
        <mxCell id="0KPqDLh-8omkB_JSvhn1-14" value="" style="shape=image;html=1;verticalAlign=top;verticalLabelPosition=bottom;labelBackgroundColor=#ffffff;imageAspect=0;aspect=fixed;image=https://cdn0.iconfinder.com/data/icons/hand-washing/512/Hand-wash-washing-cleaning-hygiene-05-128.png;rounded=0;shadow=0;glass=0;sketch=1;fontSize=12;fontColor=#00331A;fillColor=#D5E8D4;" parent="bA95F1Ph_PGz0Y281SqP-83" vertex="1">
          <mxGeometry y="10" width="55" height="55" as="geometry" />
        </mxCell>
        <mxCell id="0KPqDLh-8omkB_JSvhn1-1" value="" style="group" parent="1" vertex="1" connectable="0">
          <mxGeometry x="245" y="280" width="177.5" height="80" as="geometry" />
        </mxCell>
        <mxCell id="0KPqDLh-8omkB_JSvhn1-2" value="&lt;div style=&quot;text-align: justify ; font-size: 14px&quot;&gt;&lt;font color=&quot;#33001a&quot; style=&quot;font-size: 14px&quot;&gt;&lt;b&gt;Track the&amp;nbsp;&lt;/b&gt;&lt;/font&gt;&lt;/div&gt;&lt;div style=&quot;text-align: justify ; font-size: 14px&quot;&gt;&lt;font color=&quot;#33001a&quot; style=&quot;font-size: 14px&quot;&gt;&lt;b&gt;number of&lt;/b&gt;&lt;/font&gt;&lt;/div&gt;&lt;div style=&quot;text-align: justify ; font-size: 14px&quot;&gt;&lt;font color=&quot;#33001a&quot; style=&quot;font-size: 14px&quot;&gt;&lt;b&gt;people entering&lt;/b&gt;&lt;/font&gt;&lt;/div&gt;&lt;div style=&quot;text-align: justify ; font-size: 14px&quot;&gt;&lt;font color=&quot;#33001a&quot; style=&quot;font-size: 14px&quot;&gt;&lt;b&gt;and departing&lt;/b&gt;&lt;/font&gt;&lt;/div&gt;" style="rounded=1;whiteSpace=wrap;html=1;absoluteArcSize=1;arcSize=14;strokeWidth=2;shadow=1;glass=0;sketch=0;fontFamily=Helvetica;fontSize=12;fillColor=#FFE6CC;gradientDirection=south;align=right;strokeColor=#330033;fillStyle=solid;fontColor=#333333;" parent="0KPqDLh-8omkB_JSvhn1-1" vertex="1">
          <mxGeometry width="177.5" height="75" as="geometry" />
        </mxCell>
        <mxCell id="0KPqDLh-8omkB_JSvhn1-3" value="" style="shape=image;html=1;verticalAlign=top;verticalLabelPosition=bottom;labelBackgroundColor=#ffffff;imageAspect=0;aspect=fixed;image=https://cdn4.iconfinder.com/data/icons/iconset-addictive-flavour/png/user_group_count.png" parent="0KPqDLh-8omkB_JSvhn1-1" vertex="1">
          <mxGeometry x="20.88235294117647" y="16" width="48" height="48" as="geometry" />
        </mxCell>
        <mxCell id="0KPqDLh-8omkB_JSvhn1-5" style="edgeStyle=orthogonalEdgeStyle;orthogonalLoop=1;jettySize=auto;html=1;exitX=0.5;exitY=1;exitDx=0;exitDy=0;curved=1;sketch=0;shadow=1;strokeWidth=2;endArrow=classic;endFill=0;entryX=0.5;entryY=0;entryDx=0;entryDy=0;strokeColor=#000033;" parent="1" source="bA95F1Ph_PGz0Y281SqP-63" target="bA95F1Ph_PGz0Y281SqP-84" edge="1">
          <mxGeometry relative="1" as="geometry">
            <mxPoint x="155" y="100" as="targetPoint" />
          </mxGeometry>
        </mxCell>
        <mxCell id="jhDbc5O9KZjzmxZdwlpp-5" style="edgeStyle=orthogonalEdgeStyle;rounded=1;sketch=0;orthogonalLoop=1;jettySize=auto;html=1;entryX=0;entryY=0.5;entryDx=0;entryDy=0;shadow=0;fontSize=10;endArrow=classic;endFill=0;strokeWidth=2;strokeColor=#003333;" parent="1" target="bA95F1Ph_PGz0Y281SqP-70" edge="1">
          <mxGeometry relative="1" as="geometry">
            <mxPoint x="195" y="-90" as="sourcePoint" />
            <Array as="points">
              <mxPoint x="195" y="-42" />
            </Array>
          </mxGeometry>
        </mxCell>
        <mxCell id="jhDbc5O9KZjzmxZdwlpp-7" value="&lt;font style=&quot;font-size: 12px&quot; color=&quot;#000033&quot;&gt;&lt;b&gt;Yes&lt;/b&gt;&lt;/font&gt;" style="edgeLabel;html=1;align=center;verticalAlign=middle;resizable=0;points=[];fontSize=10;" parent="jhDbc5O9KZjzmxZdwlpp-5" vertex="1" connectable="0">
          <mxGeometry x="-0.4886" y="-2" relative="1" as="geometry">
            <mxPoint as="offset" />
          </mxGeometry>
        </mxCell>
        <mxCell id="jhDbc5O9KZjzmxZdwlpp-10" style="edgeStyle=orthogonalEdgeStyle;rounded=1;sketch=0;orthogonalLoop=1;jettySize=auto;html=1;entryX=0;entryY=0.5;entryDx=0;entryDy=0;shadow=0;fontFamily=Helvetica;fontSize=12;fontColor=#000033;endArrow=classic;endFill=0;strokeWidth=2;strokeColor=#003333;exitX=0;exitY=0.5;exitDx=0;exitDy=0;" parent="1" source="c6ZBSCJWF5Pe1CVGmaO6-1" target="bA95F1Ph_PGz0Y281SqP-67" edge="1">
          <mxGeometry relative="1" as="geometry">
            <mxPoint x="124" y="-122" as="sourcePoint" />
            <Array as="points">
              <mxPoint x="110" y="-150" />
              <mxPoint x="110" y="88" />
            </Array>
          </mxGeometry>
        </mxCell>
        <mxCell id="jhDbc5O9KZjzmxZdwlpp-13" value="&lt;b&gt;No&lt;/b&gt;" style="edgeLabel;html=1;align=center;verticalAlign=middle;resizable=0;points=[];fontSize=12;fontFamily=Helvetica;fontColor=#000033;" parent="jhDbc5O9KZjzmxZdwlpp-10" vertex="1" connectable="0">
          <mxGeometry x="-0.3406" y="-4" relative="1" as="geometry">
            <mxPoint y="-46" as="offset" />
          </mxGeometry>
        </mxCell>
        <mxCell id="0KPqDLh-8omkB_JSvhn1-34" value="" style="group;sketch=0;" parent="1" vertex="1" connectable="0">
          <mxGeometry x="400" y="-300" width="50" height="60" as="geometry" />
        </mxCell>
        <mxCell id="0KPqDLh-8omkB_JSvhn1-31" value="" style="group;sketch=0;" parent="0KPqDLh-8omkB_JSvhn1-34" vertex="1" connectable="0">
          <mxGeometry x="10" y="20" width="15" height="17.5" as="geometry" />
        </mxCell>
        <mxCell id="0KPqDLh-8omkB_JSvhn1-32" value="" style="endArrow=none;html=1;shadow=0;sketch=0;fontSize=12;fontColor=#00331A;strokeColor=#FF3333;strokeWidth=2;edgeStyle=orthogonalEdgeStyle;rounded=0;" parent="0KPqDLh-8omkB_JSvhn1-31" edge="1">
          <mxGeometry width="50" height="50" relative="1" as="geometry">
            <mxPoint y="8.75" as="sourcePoint" />
            <mxPoint x="7.5" as="targetPoint" />
            <Array as="points">
              <mxPoint />
            </Array>
          </mxGeometry>
        </mxCell>
        <mxCell id="0KPqDLh-8omkB_JSvhn1-33" value="" style="endArrow=none;html=1;shadow=0;sketch=0;fontSize=12;fontColor=#00331A;strokeColor=#FF3333;strokeWidth=2;edgeStyle=orthogonalEdgeStyle;rounded=0;" parent="0KPqDLh-8omkB_JSvhn1-31" edge="1">
          <mxGeometry width="50" height="50" relative="1" as="geometry">
            <mxPoint x="7.500000000000043" y="17.5000000000001" as="sourcePoint" />
            <mxPoint x="15.000000000000043" y="8.7500000000001" as="targetPoint" />
            <Array as="points">
              <mxPoint x="15" y="17.5" />
            </Array>
          </mxGeometry>
        </mxCell>
        <mxCell id="jhDbc5O9KZjzmxZdwlpp-9" style="edgeStyle=orthogonalEdgeStyle;rounded=0;sketch=0;orthogonalLoop=1;jettySize=auto;html=1;exitX=0.5;exitY=1;exitDx=0;exitDy=0;shadow=1;fontFamily=Helvetica;fontSize=12;fontColor=#000033;endArrow=classic;endFill=0;strokeWidth=2;entryX=0.5;entryY=0;entryDx=0;entryDy=0;" parent="1" source="bA95F1Ph_PGz0Y281SqP-84" target="0KPqDLh-8omkB_JSvhn1-2" edge="1">
          <mxGeometry relative="1" as="geometry">
            <mxPoint x="337.55172413793105" y="310" as="targetPoint" />
          </mxGeometry>
        </mxCell>
      </root>
    </mxGraphModel>
  </diagram>
</mxfile>
